<svg width="361" height="158" viewBox="0 0 361 158" fill="none" xmlns="http://www.w3.org/2000/svg">
<path d="M30.8521 92.6641C25.0752 92.6641 19.8948 91.8117 15.3214 90.0975C10.7428 88.3737 7.07986 85.8263 4.33269 82.4554C1.59598 79.0844 0.151748 75.0335 0 70.293H20.4913C20.7948 72.9745 21.8099 75.0191 23.5263 76.4221C25.2531 77.8299 27.5084 78.5289 30.2869 78.5289C33.144 78.5289 35.3993 77.9304 37.0476 76.7285C38.7064 75.5315 39.5384 73.8651 39.5384 71.7295C39.5384 69.9435 38.8738 68.4687 37.55 67.3051C36.2365 66.132 34.6249 65.1695 32.7149 64.413C30.7998 63.6612 28.0787 62.8041 24.5519 61.8465C19.4448 60.4052 15.2691 58.9639 12.0352 57.5178C8.81189 56.0765 6.03332 53.9505 3.70476 51.1398C1.38667 48.3195 0.230239 44.6372 0.230239 40.0883C0.230239 33.3607 2.89369 28.0936 8.22583 24.2869C13.5527 20.4706 20.4965 18.5601 29.052 18.5601C37.7593 18.5601 44.7763 20.4706 50.1085 24.2869C55.4511 28.0936 58.3134 33.3991 58.6901 40.2033H37.843C37.686 37.8666 36.7441 36.0278 35.0173 34.6871C33.301 33.3464 31.0876 32.676 28.3822 32.676C26.0484 32.676 24.1751 33.2458 22.7518 34.3807C21.3285 35.5059 20.6169 37.1339 20.6169 39.2647C20.6169 41.6014 21.8152 43.4306 24.217 44.7426C26.6136 46.045 30.3707 47.4528 35.4778 48.9563C40.5849 50.5412 44.7292 52.0543 47.9107 53.4956C51.1027 54.9417 53.8656 57.0342 56.1993 59.7779C58.5279 62.5264 59.6948 66.0602 59.6948 70.3888C59.6948 74.5163 58.5488 78.2608 56.2621 81.6318C53.9702 85.0028 50.6422 87.6842 46.2781 89.6762C41.9245 91.6681 36.7807 92.6641 30.8521 92.6641Z" fill="#343434"/>
<path d="M90.7867 19.5942V91.9362H71.5303V19.5942H90.7867Z" fill="#343434"/>
<path d="M194.3 19.5942V91.9362H175.023V48.554L157.357 91.9362H141.805L124.014 48.4391V91.9362H104.758V19.5942H127.51L149.696 69.68L171.653 19.5942H194.3Z" fill="#343434"/>
<path d="M360.55 19.5942V33.7102H339.598V91.9362H320.341V33.7102H299.39V19.5942H360.55Z" fill="#343434"/>
<mask id="mask0_48_1140" style="mask-type:luminance" maskUnits="userSpaceOnUse" x="196" y="0" width="106" height="115">
<path d="M196.015 0H301.841V114H196.015V0Z" fill="white"/>
</mask>
<g mask="url(#mask0_48_1140)">
<mask id="mask1_48_1140" style="mask-type:luminance" maskUnits="userSpaceOnUse" x="169" y="-16" width="161" height="147">
<path d="M169.207 51.3261L258.336 -15.9546L329.302 62.7701L240.173 130.046L169.207 51.3261Z" fill="white"/>
</mask>
<g mask="url(#mask1_48_1140)">
<mask id="mask2_48_1140" style="mask-type:luminance" maskUnits="userSpaceOnUse" x="169" y="-16" width="161" height="147">
<path d="M169.207 51.3261L258.336 -15.9546L329.302 62.7701L240.173 130.046L169.207 51.3261Z" fill="white"/>
</mask>
<g mask="url(#mask2_48_1140)">
<mask id="mask3_48_1140" style="mask-type:luminance" maskUnits="userSpaceOnUse" x="169" y="-16" width="161" height="147">
<path d="M169.207 51.3261L258.336 -15.9546L329.302 62.7701L240.173 130.046L169.207 51.3261Z" fill="white"/>
</mask>
<g mask="url(#mask3_48_1140)">
<path d="M230.116 12.698L258.849 34.2167L260.55 24.6449C277.839 29.7157 288.963 45.6656 285.934 62.6019C283.935 74.0029 275.892 83.1533 265.296 87.8124L271.737 100.09C286.541 93.6062 297.781 80.7448 300.57 64.7566C304.902 40.4176 288.283 17.405 262.842 11.07L264.657 0.736816L230.116 12.698ZM238.033 89.4117C220.739 84.3456 209.604 68.3862 212.576 51.5074C214.607 40.0824 222.602 30.9559 233.209 26.2921L226.767 14.0052C211.959 20.4934 200.724 33.3261 197.893 49.2951C193.581 73.6198 210.19 96.6516 235.626 102.996L233.779 113.329L268.462 101.344L239.729 79.8111L238.033 89.4117Z" fill="#FF9900"/>
</g>
</g>
</g>
</g>
<mask id="mask4_48_1140" style="mask-type:luminance" maskUnits="userSpaceOnUse" x="225" y="15" width="49" height="84">
<path d="M273.712 15.9355H225.487V98.0648H273.712V15.9355Z" fill="white"/>
</mask>
<g mask="url(#mask4_48_1140)">
<path d="M257.61 69.3726H241.159L238.522 76.4977H227.261L243.231 36.1226H255.664L271.634 76.4977H260.269L257.61 69.3726ZM254.848 61.7688L249.385 46.9825L243.984 61.7688H254.848Z" fill="#343434"/>
</g>
<path d="M73.8066 130.105C73.1066 130.105 72.4766 129.985 71.9166 129.745C71.3566 129.495 70.9166 129.145 70.5966 128.695C70.2766 128.245 70.1166 127.72 70.1166 127.12H71.9466C71.9866 127.57 72.1616 127.94 72.4716 128.23C72.7916 128.52 73.2366 128.665 73.8066 128.665C74.3966 128.665 74.8566 128.525 75.1866 128.245C75.5166 127.955 75.6816 127.585 75.6816 127.135C75.6816 126.785 75.5766 126.5 75.3666 126.28C75.1666 126.06 74.9116 125.89 74.6016 125.77C74.3016 125.65 73.8816 125.52 73.3416 125.38C72.6616 125.2 72.1066 125.02 71.6766 124.84C71.2566 124.65 70.8966 124.36 70.5966 123.97C70.2966 123.58 70.1466 123.06 70.1466 122.41C70.1466 121.81 70.2966 121.285 70.5966 120.835C70.8966 120.385 71.3166 120.04 71.8566 119.8C72.3966 119.56 73.0216 119.44 73.7316 119.44C74.7416 119.44 75.5666 119.695 76.2066 120.205C76.8566 120.705 77.2166 121.395 77.2866 122.275H75.3966C75.3666 121.895 75.1866 121.57 74.8566 121.3C74.5266 121.03 74.0916 120.895 73.5516 120.895C73.0616 120.895 72.6616 121.02 72.3516 121.27C72.0416 121.52 71.8866 121.88 71.8866 122.35C71.8866 122.67 71.9816 122.935 72.1716 123.145C72.3716 123.345 72.6216 123.505 72.9216 123.625C73.2216 123.745 73.6316 123.875 74.1516 124.015C74.8416 124.205 75.4016 124.395 75.8316 124.585C76.2716 124.775 76.6416 125.07 76.9416 125.47C77.2516 125.86 77.4066 126.385 77.4066 127.045C77.4066 127.575 77.2616 128.075 76.9716 128.545C76.6916 129.015 76.2766 129.395 75.7266 129.685C75.1866 129.965 74.5466 130.105 73.8066 130.105ZM80.2943 120.64C79.9843 120.64 79.7243 120.535 79.5143 120.325C79.3043 120.115 79.1993 119.855 79.1993 119.545C79.1993 119.235 79.3043 118.975 79.5143 118.765C79.7243 118.555 79.9843 118.45 80.2943 118.45C80.5943 118.45 80.8493 118.555 81.0593 118.765C81.2693 118.975 81.3743 119.235 81.3743 119.545C81.3743 119.855 81.2693 120.115 81.0593 120.325C80.8493 120.535 80.5943 120.64 80.2943 120.64ZM81.1343 121.735V130H79.4243V121.735H81.1343ZM86.3794 130.135C85.7294 130.135 85.1444 130.02 84.6244 129.79C84.1144 129.55 83.7094 129.23 83.4094 128.83C83.1094 128.42 82.9494 127.965 82.9294 127.465H84.6994C84.7294 127.815 84.8944 128.11 85.1944 128.35C85.5044 128.58 85.8894 128.695 86.3494 128.695C86.8294 128.695 87.1994 128.605 87.4594 128.425C87.7294 128.235 87.8644 127.995 87.8644 127.705C87.8644 127.395 87.7144 127.165 87.4144 127.015C87.1244 126.865 86.6594 126.7 86.0194 126.52C85.3994 126.35 84.8944 126.185 84.5044 126.025C84.1144 125.865 83.7744 125.62 83.4844 125.29C83.2044 124.96 83.0644 124.525 83.0644 123.985C83.0644 123.545 83.1944 123.145 83.4544 122.785C83.7144 122.415 84.0844 122.125 84.5644 121.915C85.0544 121.705 85.6144 121.6 86.2444 121.6C87.1844 121.6 87.9394 121.84 88.5094 122.32C89.0894 122.79 89.3994 123.435 89.4394 124.255H87.7294C87.6994 123.885 87.5494 123.59 87.2794 123.37C87.0094 123.15 86.6444 123.04 86.1844 123.04C85.7344 123.04 85.3894 123.125 85.1494 123.295C84.9094 123.465 84.7894 123.69 84.7894 123.97C84.7894 124.19 84.8694 124.375 85.0294 124.525C85.1894 124.675 85.3844 124.795 85.6144 124.885C85.8444 124.965 86.1844 125.07 86.6344 125.2C87.2344 125.36 87.7244 125.525 88.1044 125.695C88.4944 125.855 88.8294 126.095 89.1094 126.415C89.3894 126.735 89.5344 127.16 89.5444 127.69C89.5444 128.16 89.4144 128.58 89.1544 128.95C88.8944 129.32 88.5244 129.61 88.0444 129.82C87.5744 130.03 87.0194 130.135 86.3794 130.135ZM93.3871 123.13V127.705C93.3871 128.015 93.4571 128.24 93.5971 128.38C93.7471 128.51 93.9971 128.575 94.3471 128.575H95.3971V130H94.0471C93.2771 130 92.6871 129.82 92.2771 129.46C91.8671 129.1 91.6621 128.515 91.6621 127.705V123.13H90.6871V121.735H91.6621V119.68H93.3871V121.735H95.3971V123.13H93.3871ZM104.548 125.665C104.548 125.975 104.528 126.255 104.488 126.505H98.1731C98.2231 127.165 98.4681 127.695 98.9081 128.095C99.3481 128.495 99.8881 128.695 100.528 128.695C101.448 128.695 102.098 128.31 102.478 127.54H104.323C104.073 128.3 103.618 128.925 102.958 129.415C102.308 129.895 101.498 130.135 100.528 130.135C99.7381 130.135 99.0281 129.96 98.3981 129.61C97.7781 129.25 97.2881 128.75 96.9281 128.11C96.5781 127.46 96.4031 126.71 96.4031 125.86C96.4031 125.01 96.5731 124.265 96.9131 123.625C97.2631 122.975 97.7481 122.475 98.3681 122.125C98.9981 121.775 99.7181 121.6 100.528 121.6C101.308 121.6 102.003 121.77 102.613 122.11C103.223 122.45 103.698 122.93 104.038 123.55C104.378 124.16 104.548 124.865 104.548 125.665ZM102.763 125.125C102.753 124.495 102.528 123.99 102.088 123.61C101.648 123.23 101.103 123.04 100.453 123.04C99.8631 123.04 99.3581 123.23 98.9381 123.61C98.5181 123.98 98.2681 124.485 98.1881 125.125H102.763ZM116.236 121.6C116.886 121.6 117.466 121.735 117.976 122.005C118.496 122.275 118.901 122.675 119.191 123.205C119.491 123.735 119.641 124.375 119.641 125.125V130H117.946V125.38C117.946 124.64 117.761 124.075 117.391 123.685C117.021 123.285 116.516 123.085 115.876 123.085C115.236 123.085 114.726 123.285 114.346 123.685C113.976 124.075 113.791 124.64 113.791 125.38V130H112.096V125.38C112.096 124.64 111.911 124.075 111.541 123.685C111.171 123.285 110.666 123.085 110.026 123.085C109.386 123.085 108.876 123.285 108.496 123.685C108.126 124.075 107.941 124.64 107.941 125.38V130H106.231V121.735H107.941V122.68C108.221 122.34 108.576 122.075 109.006 121.885C109.436 121.695 109.896 121.6 110.386 121.6C111.046 121.6 111.636 121.74 112.156 122.02C112.676 122.3 113.076 122.705 113.356 123.235C113.606 122.735 113.996 122.34 114.526 122.05C115.056 121.75 115.626 121.6 116.236 121.6ZM127.423 119.575V130H125.713V119.575H127.423ZM133.838 121.6C134.488 121.6 135.068 121.735 135.578 122.005C136.098 122.275 136.503 122.675 136.793 123.205C137.083 123.735 137.228 124.375 137.228 125.125V130H135.533V125.38C135.533 124.64 135.348 124.075 134.978 123.685C134.608 123.285 134.103 123.085 133.463 123.085C132.823 123.085 132.313 123.285 131.933 123.685C131.563 124.075 131.378 124.64 131.378 125.38V130H129.668V121.735H131.378V122.68C131.658 122.34 132.013 122.075 132.443 121.885C132.883 121.695 133.348 121.6 133.838 121.6ZM142.875 123.13H141.345V130H139.62V123.13H138.645V121.735H139.62V121.15C139.62 120.2 139.87 119.51 140.37 119.08C140.88 118.64 141.675 118.42 142.755 118.42V119.845C142.235 119.845 141.87 119.945 141.66 120.145C141.45 120.335 141.345 120.67 141.345 121.15V121.735H142.875V123.13ZM147.975 130.135C147.195 130.135 146.49 129.96 145.86 129.61C145.23 129.25 144.735 128.75 144.375 128.11C144.015 127.46 143.835 126.71 143.835 125.86C143.835 125.02 144.02 124.275 144.39 123.625C144.76 122.975 145.265 122.475 145.905 122.125C146.545 121.775 147.26 121.6 148.05 121.6C148.84 121.6 149.555 121.775 150.195 122.125C150.835 122.475 151.34 122.975 151.71 123.625C152.08 124.275 152.265 125.02 152.265 125.86C152.265 126.7 152.075 127.445 151.695 128.095C151.315 128.745 150.795 129.25 150.135 129.61C149.485 129.96 148.765 130.135 147.975 130.135ZM147.975 128.65C148.415 128.65 148.825 128.545 149.205 128.335C149.595 128.125 149.91 127.81 150.15 127.39C150.39 126.97 150.51 126.46 150.51 125.86C150.51 125.26 150.395 124.755 150.165 124.345C149.935 123.925 149.63 123.61 149.25 123.4C148.87 123.19 148.46 123.085 148.02 123.085C147.58 123.085 147.17 123.19 146.79 123.4C146.42 123.61 146.125 123.925 145.905 124.345C145.685 124.755 145.575 125.26 145.575 125.86C145.575 126.75 145.8 127.44 146.25 127.93C146.71 128.41 147.285 128.65 147.975 128.65ZM155.666 122.935C155.916 122.515 156.246 122.19 156.656 121.96C157.076 121.72 157.571 121.6 158.141 121.6V123.37H157.706C157.036 123.37 156.526 123.54 156.176 123.88C155.836 124.22 155.666 124.81 155.666 125.65V130H153.956V121.735H155.666V122.935ZM169.717 121.6C170.367 121.6 170.947 121.735 171.457 122.005C171.977 122.275 172.382 122.675 172.672 123.205C172.972 123.735 173.122 124.375 173.122 125.125V130H171.427V125.38C171.427 124.64 171.242 124.075 170.872 123.685C170.502 123.285 169.997 123.085 169.357 123.085C168.717 123.085 168.207 123.285 167.827 123.685C167.457 124.075 167.272 124.64 167.272 125.38V130H165.577V125.38C165.577 124.64 165.392 124.075 165.022 123.685C164.652 123.285 164.147 123.085 163.507 123.085C162.867 123.085 162.357 123.285 161.977 123.685C161.607 124.075 161.422 124.64 161.422 125.38V130H159.712V121.735H161.422V122.68C161.702 122.34 162.057 122.075 162.487 121.885C162.917 121.695 163.377 121.6 163.867 121.6C164.527 121.6 165.117 121.74 165.637 122.02C166.157 122.3 166.557 122.705 166.837 123.235C167.087 122.735 167.477 122.34 168.007 122.05C168.537 121.75 169.107 121.6 169.717 121.6ZM174.728 125.83C174.728 125 174.898 124.265 175.238 123.625C175.588 122.985 176.058 122.49 176.648 122.14C177.248 121.78 177.908 121.6 178.628 121.6C179.278 121.6 179.843 121.73 180.323 121.99C180.813 122.24 181.203 122.555 181.493 122.935V121.735H183.218V130H181.493V128.77C181.203 129.16 180.808 129.485 180.308 129.745C179.808 130.005 179.238 130.135 178.598 130.135C177.888 130.135 177.238 129.955 176.648 129.595C176.058 129.225 175.588 128.715 175.238 128.065C174.898 127.405 174.728 126.66 174.728 125.83ZM181.493 125.86C181.493 125.29 181.373 124.795 181.133 124.375C180.903 123.955 180.598 123.635 180.218 123.415C179.838 123.195 179.428 123.085 178.988 123.085C178.548 123.085 178.138 123.195 177.758 123.415C177.378 123.625 177.068 123.94 176.828 124.36C176.598 124.77 176.483 125.26 176.483 125.83C176.483 126.4 176.598 126.9 176.828 127.33C177.068 127.76 177.378 128.09 177.758 128.32C178.148 128.54 178.558 128.65 178.988 128.65C179.428 128.65 179.838 128.54 180.218 128.32C180.598 128.1 180.903 127.78 181.133 127.36C181.373 126.93 181.493 126.43 181.493 125.86ZM188.464 130.135C187.814 130.135 187.229 130.02 186.709 129.79C186.199 129.55 185.794 129.23 185.494 128.83C185.194 128.42 185.034 127.965 185.014 127.465H186.784C186.814 127.815 186.979 128.11 187.279 128.35C187.589 128.58 187.974 128.695 188.434 128.695C188.914 128.695 189.284 128.605 189.544 128.425C189.814 128.235 189.949 127.995 189.949 127.705C189.949 127.395 189.799 127.165 189.499 127.015C189.209 126.865 188.744 126.7 188.104 126.52C187.484 126.35 186.979 126.185 186.589 126.025C186.199 125.865 185.859 125.62 185.569 125.29C185.289 124.96 185.149 124.525 185.149 123.985C185.149 123.545 185.279 123.145 185.539 122.785C185.799 122.415 186.169 122.125 186.649 121.915C187.139 121.705 187.699 121.6 188.329 121.6C189.269 121.6 190.024 121.84 190.594 122.32C191.174 122.79 191.484 123.435 191.524 124.255H189.814C189.784 123.885 189.634 123.59 189.364 123.37C189.094 123.15 188.729 123.04 188.269 123.04C187.819 123.04 187.474 123.125 187.234 123.295C186.994 123.465 186.874 123.69 186.874 123.97C186.874 124.19 186.954 124.375 187.114 124.525C187.274 124.675 187.469 124.795 187.699 124.885C187.929 124.965 188.269 125.07 188.719 125.2C189.319 125.36 189.809 125.525 190.189 125.695C190.579 125.855 190.914 126.095 191.194 126.415C191.474 126.735 191.619 127.16 191.629 127.69C191.629 128.16 191.499 128.58 191.239 128.95C190.979 129.32 190.609 129.61 190.129 129.82C189.659 130.03 189.104 130.135 188.464 130.135ZM194.347 120.64C194.037 120.64 193.777 120.535 193.567 120.325C193.357 120.115 193.252 119.855 193.252 119.545C193.252 119.235 193.357 118.975 193.567 118.765C193.777 118.555 194.037 118.45 194.347 118.45C194.647 118.45 194.902 118.555 195.112 118.765C195.322 118.975 195.427 119.235 195.427 119.545C195.427 119.855 195.322 120.115 195.112 120.325C194.902 120.535 194.647 120.64 194.347 120.64ZM195.187 121.735V130H193.477V121.735H195.187ZM212.309 119.575V130H210.599V122.86L207.419 130H206.234L203.039 122.86V130H201.329V119.575H203.174L206.834 127.75L210.479 119.575H212.309ZM213.986 125.83C213.986 125 214.156 124.265 214.496 123.625C214.846 122.985 215.316 122.49 215.906 122.14C216.506 121.78 217.166 121.6 217.886 121.6C218.536 121.6 219.101 121.73 219.581 121.99C220.071 122.24 220.461 122.555 220.751 122.935V121.735H222.476V130H220.751V128.77C220.461 129.16 220.066 129.485 219.566 129.745C219.066 130.005 218.496 130.135 217.856 130.135C217.146 130.135 216.496 129.955 215.906 129.595C215.316 129.225 214.846 128.715 214.496 128.065C214.156 127.405 213.986 126.66 213.986 125.83ZM220.751 125.86C220.751 125.29 220.631 124.795 220.391 124.375C220.161 123.955 219.856 123.635 219.476 123.415C219.096 123.195 218.686 123.085 218.246 123.085C217.806 123.085 217.396 123.195 217.016 123.415C216.636 123.625 216.326 123.94 216.086 124.36C215.856 124.77 215.741 125.26 215.741 125.83C215.741 126.4 215.856 126.9 216.086 127.33C216.326 127.76 216.636 128.09 217.016 128.32C217.406 128.54 217.816 128.65 218.246 128.65C218.686 128.65 219.096 128.54 219.476 128.32C219.856 128.1 220.161 127.78 220.391 127.36C220.631 126.93 220.751 126.43 220.751 125.86ZM228.892 121.6C229.542 121.6 230.122 121.735 230.632 122.005C231.152 122.275 231.557 122.675 231.847 123.205C232.137 123.735 232.282 124.375 232.282 125.125V130H230.587V125.38C230.587 124.64 230.402 124.075 230.032 123.685C229.662 123.285 229.157 123.085 228.517 123.085C227.877 123.085 227.367 123.285 226.987 123.685C226.617 124.075 226.432 124.64 226.432 125.38V130H224.722V121.735H226.432V122.68C226.712 122.34 227.067 122.075 227.497 121.885C227.937 121.695 228.402 121.6 228.892 121.6ZM233.893 125.83C233.893 125 234.063 124.265 234.403 123.625C234.753 122.985 235.223 122.49 235.813 122.14C236.413 121.78 237.073 121.6 237.793 121.6C238.443 121.6 239.008 121.73 239.488 121.99C239.978 122.24 240.368 122.555 240.658 122.935V121.735H242.383V130H240.658V128.77C240.368 129.16 239.973 129.485 239.473 129.745C238.973 130.005 238.403 130.135 237.763 130.135C237.053 130.135 236.403 129.955 235.813 129.595C235.223 129.225 234.753 128.715 234.403 128.065C234.063 127.405 233.893 126.66 233.893 125.83ZM240.658 125.86C240.658 125.29 240.538 124.795 240.298 124.375C240.068 123.955 239.763 123.635 239.383 123.415C239.003 123.195 238.593 123.085 238.153 123.085C237.713 123.085 237.303 123.195 236.923 123.415C236.543 123.625 236.233 123.94 235.993 124.36C235.763 124.77 235.648 125.26 235.648 125.83C235.648 126.4 235.763 126.9 235.993 127.33C236.233 127.76 236.543 128.09 236.923 128.32C237.313 128.54 237.723 128.65 238.153 128.65C238.593 128.65 239.003 128.54 239.383 128.32C239.763 128.1 240.068 127.78 240.298 127.36C240.538 126.93 240.658 126.43 240.658 125.86ZM245.499 120.64C245.189 120.64 244.929 120.535 244.719 120.325C244.509 120.115 244.404 119.855 244.404 119.545C244.404 119.235 244.509 118.975 244.719 118.765C244.929 118.555 245.189 118.45 245.499 118.45C245.799 118.45 246.054 118.555 246.264 118.765C246.474 118.975 246.579 119.235 246.579 119.545C246.579 119.855 246.474 120.115 246.264 120.325C246.054 120.535 245.799 120.64 245.499 120.64ZM246.339 131.62C246.339 132.43 246.134 133.015 245.724 133.375C245.324 133.745 244.739 133.93 243.969 133.93H243.084V132.49H243.669C244.019 132.49 244.264 132.42 244.404 132.28C244.554 132.15 244.629 131.93 244.629 131.62V121.735H246.339V131.62ZM256.159 125.665C256.159 125.975 256.139 126.255 256.099 126.505H249.784C249.834 127.165 250.079 127.695 250.519 128.095C250.959 128.495 251.499 128.695 252.139 128.695C253.059 128.695 253.709 128.31 254.089 127.54H255.934C255.684 128.3 255.229 128.925 254.569 129.415C253.919 129.895 253.109 130.135 252.139 130.135C251.349 130.135 250.639 129.96 250.009 129.61C249.389 129.25 248.899 128.75 248.539 128.11C248.189 127.46 248.014 126.71 248.014 125.86C248.014 125.01 248.184 124.265 248.524 123.625C248.874 122.975 249.359 122.475 249.979 122.125C250.609 121.775 251.329 121.6 252.139 121.6C252.919 121.6 253.614 121.77 254.224 122.11C254.834 122.45 255.309 122.93 255.649 123.55C255.989 124.16 256.159 124.865 256.159 125.665ZM254.374 125.125C254.364 124.495 254.139 123.99 253.699 123.61C253.259 123.23 252.714 123.04 252.064 123.04C251.474 123.04 250.969 123.23 250.549 123.61C250.129 123.98 249.879 124.485 249.799 125.125H254.374ZM267.847 121.6C268.497 121.6 269.077 121.735 269.587 122.005C270.107 122.275 270.512 122.675 270.802 123.205C271.102 123.735 271.252 124.375 271.252 125.125V130H269.557V125.38C269.557 124.64 269.372 124.075 269.002 123.685C268.632 123.285 268.127 123.085 267.487 123.085C266.847 123.085 266.337 123.285 265.957 123.685C265.587 124.075 265.402 124.64 265.402 125.38V130H263.707V125.38C263.707 124.64 263.522 124.075 263.152 123.685C262.782 123.285 262.277 123.085 261.637 123.085C260.997 123.085 260.487 123.285 260.107 123.685C259.737 124.075 259.552 124.64 259.552 125.38V130H257.842V121.735H259.552V122.68C259.832 122.34 260.187 122.075 260.617 121.885C261.047 121.695 261.507 121.6 261.997 121.6C262.657 121.6 263.247 121.74 263.767 122.02C264.287 122.3 264.687 122.705 264.967 123.235C265.217 122.735 265.607 122.34 266.137 122.05C266.667 121.75 267.237 121.6 267.847 121.6ZM281.003 125.665C281.003 125.975 280.983 126.255 280.943 126.505H274.628C274.678 127.165 274.923 127.695 275.363 128.095C275.803 128.495 276.343 128.695 276.983 128.695C277.903 128.695 278.553 128.31 278.933 127.54H280.778C280.528 128.3 280.073 128.925 279.413 129.415C278.763 129.895 277.953 130.135 276.983 130.135C276.193 130.135 275.483 129.96 274.853 129.61C274.233 129.25 273.743 128.75 273.383 128.11C273.033 127.46 272.858 126.71 272.858 125.86C272.858 125.01 273.028 124.265 273.368 123.625C273.718 122.975 274.203 122.475 274.823 122.125C275.453 121.775 276.173 121.6 276.983 121.6C277.763 121.6 278.458 121.77 279.068 122.11C279.678 122.45 280.153 122.93 280.493 123.55C280.833 124.16 281.003 124.865 281.003 125.665ZM279.218 125.125C279.208 124.495 278.983 123.99 278.543 123.61C278.103 123.23 277.558 123.04 276.908 123.04C276.318 123.04 275.813 123.23 275.393 123.61C274.973 123.98 274.723 124.485 274.643 125.125H279.218ZM286.856 121.6C287.506 121.6 288.086 121.735 288.596 122.005C289.116 122.275 289.521 122.675 289.811 123.205C290.101 123.735 290.246 124.375 290.246 125.125V130H288.551V125.38C288.551 124.64 288.366 124.075 287.996 123.685C287.626 123.285 287.121 123.085 286.481 123.085C285.841 123.085 285.331 123.285 284.951 123.685C284.581 124.075 284.396 124.64 284.396 125.38V130H282.686V121.735H284.396V122.68C284.676 122.34 285.031 122.075 285.461 121.885C285.901 121.695 286.366 121.6 286.856 121.6ZM113.175 150.87H108.81L108.06 153H106.275L110.01 142.56H111.99L115.725 153H113.925L113.175 150.87ZM112.695 149.475L111 144.63L109.29 149.475H112.695ZM124.834 144.735V153H123.124V152.025C122.854 152.365 122.499 152.635 122.059 152.835C121.629 153.025 121.169 153.12 120.679 153.12C120.029 153.12 119.444 152.985 118.924 152.715C118.414 152.445 118.009 152.045 117.709 151.515C117.419 150.985 117.274 150.345 117.274 149.595V144.735H118.969V149.34C118.969 150.08 119.154 150.65 119.524 151.05C119.894 151.44 120.399 151.635 121.039 151.635C121.679 151.635 122.184 151.44 122.554 151.05C122.934 150.65 123.124 150.08 123.124 149.34V144.735H124.834ZM129.085 146.13V150.705C129.085 151.015 129.155 151.24 129.295 151.38C129.445 151.51 129.695 151.575 130.045 151.575H131.095V153H129.745C128.975 153 128.385 152.82 127.975 152.46C127.565 152.1 127.36 151.515 127.36 150.705V146.13H126.385V144.735H127.36V142.68H129.085V144.735H131.095V146.13H129.085ZM136.256 153.135C135.476 153.135 134.771 152.96 134.141 152.61C133.511 152.25 133.016 151.75 132.656 151.11C132.296 150.46 132.116 149.71 132.116 148.86C132.116 148.02 132.301 147.275 132.671 146.625C133.041 145.975 133.546 145.475 134.186 145.125C134.826 144.775 135.541 144.6 136.331 144.6C137.121 144.6 137.836 144.775 138.476 145.125C139.116 145.475 139.621 145.975 139.991 146.625C140.361 147.275 140.546 148.02 140.546 148.86C140.546 149.7 140.356 150.445 139.976 151.095C139.596 151.745 139.076 152.25 138.416 152.61C137.766 152.96 137.046 153.135 136.256 153.135ZM136.256 151.65C136.696 151.65 137.106 151.545 137.486 151.335C137.876 151.125 138.191 150.81 138.431 150.39C138.671 149.97 138.791 149.46 138.791 148.86C138.791 148.26 138.676 147.755 138.446 147.345C138.216 146.925 137.911 146.61 137.531 146.4C137.151 146.19 136.741 146.085 136.301 146.085C135.861 146.085 135.451 146.19 135.071 146.4C134.701 146.61 134.406 146.925 134.186 147.345C133.966 147.755 133.856 148.26 133.856 148.86C133.856 149.75 134.081 150.44 134.531 150.93C134.991 151.41 135.566 151.65 136.256 151.65ZM152.242 144.6C152.892 144.6 153.472 144.735 153.982 145.005C154.502 145.275 154.907 145.675 155.197 146.205C155.497 146.735 155.647 147.375 155.647 148.125V153H153.952V148.38C153.952 147.64 153.767 147.075 153.397 146.685C153.027 146.285 152.522 146.085 151.882 146.085C151.242 146.085 150.732 146.285 150.352 146.685C149.982 147.075 149.797 147.64 149.797 148.38V153H148.102V148.38C148.102 147.64 147.917 147.075 147.547 146.685C147.177 146.285 146.672 146.085 146.032 146.085C145.392 146.085 144.882 146.285 144.502 146.685C144.132 147.075 143.947 147.64 143.947 148.38V153H142.237V144.735H143.947V145.68C144.227 145.34 144.582 145.075 145.012 144.885C145.442 144.695 145.902 144.6 146.392 144.6C147.052 144.6 147.642 144.74 148.162 145.02C148.682 145.3 149.082 145.705 149.362 146.235C149.612 145.735 150.002 145.34 150.532 145.05C151.062 144.75 151.632 144.6 152.242 144.6ZM157.253 148.83C157.253 148 157.423 147.265 157.763 146.625C158.113 145.985 158.583 145.49 159.173 145.14C159.773 144.78 160.433 144.6 161.153 144.6C161.803 144.6 162.368 144.73 162.848 144.99C163.338 145.24 163.728 145.555 164.018 145.935V144.735H165.743V153H164.018V151.77C163.728 152.16 163.333 152.485 162.833 152.745C162.333 153.005 161.763 153.135 161.123 153.135C160.413 153.135 159.763 152.955 159.173 152.595C158.583 152.225 158.113 151.715 157.763 151.065C157.423 150.405 157.253 149.66 157.253 148.83ZM164.018 148.86C164.018 148.29 163.898 147.795 163.658 147.375C163.428 146.955 163.123 146.635 162.743 146.415C162.363 146.195 161.953 146.085 161.513 146.085C161.073 146.085 160.663 146.195 160.283 146.415C159.903 146.625 159.593 146.94 159.353 147.36C159.123 147.77 159.008 148.26 159.008 148.83C159.008 149.4 159.123 149.9 159.353 150.33C159.593 150.76 159.903 151.09 160.283 151.32C160.673 151.54 161.083 151.65 161.513 151.65C161.953 151.65 162.363 151.54 162.743 151.32C163.123 151.1 163.428 150.78 163.658 150.36C163.898 149.93 164.018 149.43 164.018 148.86ZM169.984 146.13V150.705C169.984 151.015 170.054 151.24 170.194 151.38C170.344 151.51 170.594 151.575 170.944 151.575H171.994V153H170.644C169.874 153 169.284 152.82 168.874 152.46C168.464 152.1 168.259 151.515 168.259 150.705V146.13H167.284V144.735H168.259V142.68H169.984V144.735H171.994V146.13H169.984ZM174.44 143.64C174.13 143.64 173.87 143.535 173.66 143.325C173.45 143.115 173.345 142.855 173.345 142.545C173.345 142.235 173.45 141.975 173.66 141.765C173.87 141.555 174.13 141.45 174.44 141.45C174.74 141.45 174.995 141.555 175.205 141.765C175.415 141.975 175.52 142.235 175.52 142.545C175.52 142.855 175.415 143.115 175.205 143.325C174.995 143.535 174.74 143.64 174.44 143.64ZM175.28 144.735V153H173.57V144.735H175.28ZM181.11 153.135C180.33 153.135 179.625 152.96 178.995 152.61C178.365 152.25 177.87 151.75 177.51 151.11C177.15 150.46 176.97 149.71 176.97 148.86C176.97 148.02 177.155 147.275 177.525 146.625C177.895 145.975 178.4 145.475 179.04 145.125C179.68 144.775 180.395 144.6 181.185 144.6C181.975 144.6 182.69 144.775 183.33 145.125C183.97 145.475 184.475 145.975 184.845 146.625C185.215 147.275 185.4 148.02 185.4 148.86C185.4 149.7 185.21 150.445 184.83 151.095C184.45 151.745 183.93 152.25 183.27 152.61C182.62 152.96 181.9 153.135 181.11 153.135ZM181.11 151.65C181.55 151.65 181.96 151.545 182.34 151.335C182.73 151.125 183.045 150.81 183.285 150.39C183.525 149.97 183.645 149.46 183.645 148.86C183.645 148.26 183.53 147.755 183.3 147.345C183.07 146.925 182.765 146.61 182.385 146.4C182.005 146.19 181.595 146.085 181.155 146.085C180.715 146.085 180.305 146.19 179.925 146.4C179.555 146.61 179.26 146.925 179.04 147.345C178.82 147.755 178.71 148.26 178.71 148.86C178.71 149.75 178.935 150.44 179.385 150.93C179.845 151.41 180.42 151.65 181.11 151.65ZM191.26 144.6C191.91 144.6 192.49 144.735 193 145.005C193.52 145.275 193.925 145.675 194.215 146.205C194.505 146.735 194.65 147.375 194.65 148.125V153H192.955V148.38C192.955 147.64 192.77 147.075 192.4 146.685C192.03 146.285 191.525 146.085 190.885 146.085C190.245 146.085 189.735 146.285 189.355 146.685C188.985 147.075 188.8 147.64 188.8 148.38V153H187.09V144.735H188.8V145.68C189.08 145.34 189.435 145.075 189.865 144.885C190.305 144.695 190.77 144.6 191.26 144.6ZM207.463 142.575V143.97H204.688V153H202.978V143.97H200.188V142.575H207.463ZM216.77 148.665C216.77 148.975 216.75 149.255 216.71 149.505H210.395C210.445 150.165 210.69 150.695 211.13 151.095C211.57 151.495 212.11 151.695 212.75 151.695C213.67 151.695 214.32 151.31 214.7 150.54H216.545C216.295 151.3 215.84 151.925 215.18 152.415C214.53 152.895 213.72 153.135 212.75 153.135C211.96 153.135 211.25 152.96 210.62 152.61C210 152.25 209.51 151.75 209.15 151.11C208.8 150.46 208.625 149.71 208.625 148.86C208.625 148.01 208.795 147.265 209.135 146.625C209.485 145.975 209.97 145.475 210.59 145.125C211.22 144.775 211.94 144.6 212.75 144.6C213.53 144.6 214.225 144.77 214.835 145.11C215.445 145.45 215.92 145.93 216.26 146.55C216.6 147.16 216.77 147.865 216.77 148.665ZM214.985 148.125C214.975 147.495 214.75 146.99 214.31 146.61C213.87 146.23 213.325 146.04 212.675 146.04C212.085 146.04 211.58 146.23 211.16 146.61C210.74 146.98 210.49 147.485 210.41 148.125H214.985ZM221.453 153.135C220.803 153.135 220.218 153.02 219.698 152.79C219.188 152.55 218.783 152.23 218.483 151.83C218.183 151.42 218.023 150.965 218.003 150.465H219.773C219.803 150.815 219.968 151.11 220.268 151.35C220.578 151.58 220.963 151.695 221.423 151.695C221.903 151.695 222.273 151.605 222.533 151.425C222.803 151.235 222.938 150.995 222.938 150.705C222.938 150.395 222.788 150.165 222.488 150.015C222.198 149.865 221.733 149.7 221.093 149.52C220.473 149.35 219.968 149.185 219.578 149.025C219.188 148.865 218.848 148.62 218.558 148.29C218.278 147.96 218.138 147.525 218.138 146.985C218.138 146.545 218.268 146.145 218.528 145.785C218.788 145.415 219.158 145.125 219.638 144.915C220.128 144.705 220.688 144.6 221.318 144.6C222.258 144.6 223.013 144.84 223.583 145.32C224.163 145.79 224.473 146.435 224.513 147.255H222.803C222.773 146.885 222.623 146.59 222.353 146.37C222.083 146.15 221.718 146.04 221.258 146.04C220.808 146.04 220.463 146.125 220.223 146.295C219.983 146.465 219.863 146.69 219.863 146.97C219.863 147.19 219.943 147.375 220.103 147.525C220.263 147.675 220.458 147.795 220.688 147.885C220.918 147.965 221.258 148.07 221.708 148.2C222.308 148.36 222.798 148.525 223.178 148.695C223.568 148.855 223.903 149.095 224.183 149.415C224.463 149.735 224.608 150.16 224.618 150.69C224.618 151.16 224.488 151.58 224.228 151.95C223.968 152.32 223.598 152.61 223.118 152.82C222.648 153.03 222.093 153.135 221.453 153.135ZM228.46 146.13V150.705C228.46 151.015 228.53 151.24 228.67 151.38C228.82 151.51 229.07 151.575 229.42 151.575H230.47V153H229.12C228.35 153 227.76 152.82 227.35 152.46C226.94 152.1 226.735 151.515 226.735 150.705V146.13H225.76V144.735H226.735V142.68H228.46V144.735H230.47V146.13H228.46ZM232.916 143.64C232.606 143.64 232.346 143.535 232.136 143.325C231.926 143.115 231.821 142.855 231.821 142.545C231.821 142.235 231.926 141.975 232.136 141.765C232.346 141.555 232.606 141.45 232.916 141.45C233.216 141.45 233.471 141.555 233.681 141.765C233.891 141.975 233.996 142.235 233.996 142.545C233.996 142.855 233.891 143.115 233.681 143.325C233.471 143.535 233.216 143.64 232.916 143.64ZM233.756 144.735V153H232.046V144.735H233.756ZM240.171 144.6C240.821 144.6 241.401 144.735 241.911 145.005C242.431 145.275 242.836 145.675 243.126 146.205C243.416 146.735 243.561 147.375 243.561 148.125V153H241.866V148.38C241.866 147.64 241.681 147.075 241.311 146.685C240.941 146.285 240.436 146.085 239.796 146.085C239.156 146.085 238.646 146.285 238.266 146.685C237.896 147.075 237.711 147.64 237.711 148.38V153H236.001V144.735H237.711V145.68C237.991 145.34 238.346 145.075 238.776 144.885C239.216 144.695 239.681 144.6 240.171 144.6ZM249.073 144.6C249.713 144.6 250.278 144.73 250.768 144.99C251.268 145.24 251.658 145.555 251.938 145.935V144.735H253.663V153.135C253.663 153.895 253.503 154.57 253.183 155.16C252.863 155.76 252.398 156.23 251.788 156.57C251.188 156.91 250.468 157.08 249.628 157.08C248.508 157.08 247.578 156.815 246.838 156.285C246.098 155.765 245.678 155.055 245.578 154.155H247.273C247.403 154.585 247.678 154.93 248.098 155.19C248.528 155.46 249.038 155.595 249.628 155.595C250.318 155.595 250.873 155.385 251.293 154.965C251.723 154.545 251.938 153.935 251.938 153.135V151.755C251.648 152.145 251.253 152.475 250.753 152.745C250.263 153.005 249.703 153.135 249.073 153.135C248.353 153.135 247.693 152.955 247.093 152.595C246.503 152.225 246.033 151.715 245.683 151.065C245.343 150.405 245.173 149.66 245.173 148.83C245.173 148 245.343 147.265 245.683 146.625C246.033 145.985 246.503 145.49 247.093 145.14C247.693 144.78 248.353 144.6 249.073 144.6ZM251.938 148.86C251.938 148.29 251.818 147.795 251.578 147.375C251.348 146.955 251.043 146.635 250.663 146.415C250.283 146.195 249.873 146.085 249.433 146.085C248.993 146.085 248.583 146.195 248.203 146.415C247.823 146.625 247.513 146.94 247.273 147.36C247.043 147.77 246.928 148.26 246.928 148.83C246.928 149.4 247.043 149.9 247.273 150.33C247.513 150.76 247.823 151.09 248.203 151.32C248.593 151.54 249.003 151.65 249.433 151.65C249.873 151.65 250.283 151.54 250.663 151.32C251.043 151.1 251.348 150.78 251.578 150.36C251.818 149.93 251.938 149.43 251.938 148.86Z" fill="#343434"/>
</svg>
