<svg width="98" height="106" viewBox="0 0 98 106" fill="none" xmlns="http://www.w3.org/2000/svg">
<mask id="mask0_275_748" style="mask-type:luminance" maskUnits="userSpaceOnUse" x="0" y="0" width="98" height="106">
<path d="M0 0H98V105.569H0V0Z" fill="white"/>
</mask>
<g mask="url(#mask0_275_748)">
<mask id="mask1_275_748" style="mask-type:luminance" maskUnits="userSpaceOnUse" x="-25" y="-15" width="149" height="136">
<path d="M-24.8252 47.5305L57.7121 -14.7744L123.43 58.1282L40.8926 120.429L-24.8252 47.5305Z" fill="white"/>
</mask>
<g mask="url(#mask1_275_748)">
<mask id="mask2_275_748" style="mask-type:luminance" maskUnits="userSpaceOnUse" x="-25" y="-15" width="149" height="136">
<path d="M-24.8252 47.5305L57.7121 -14.7744L123.43 58.1282L40.8926 120.429L-24.8252 47.5305Z" fill="white"/>
</mask>
<g mask="url(#mask2_275_748)">
<mask id="mask3_275_748" style="mask-type:luminance" maskUnits="userSpaceOnUse" x="-25" y="-15" width="149" height="136">
<path d="M-24.8252 47.5305L57.7121 -14.7744L123.43 58.1282L40.8926 120.429L-24.8252 47.5305Z" fill="white"/>
</mask>
<g mask="url(#mask3_275_748)">
<path d="M31.5794 11.7588L58.1873 31.686L59.7622 22.8221C75.7724 27.5179 86.0745 42.2882 83.2688 57.972C81.4177 68.5298 73.9698 77.0035 64.1572 81.318L70.1223 92.6873C83.8309 86.6834 94.2395 74.7731 96.8223 59.9674C100.835 37.4283 85.4445 16.1176 61.8846 10.2511L63.5661 0.682129L31.5794 11.7588ZM38.911 82.799C22.8959 78.1077 12.5842 63.3285 15.3365 47.6979C17.2167 37.1179 24.6209 28.6664 34.4432 24.3474L28.4781 12.9693C14.7647 18.9776 4.36096 30.8613 1.73942 45.6493C-2.25346 68.1751 13.1269 89.5036 36.682 95.3789L34.9714 104.948L67.0889 93.8491L40.481 73.9085L38.911 82.799Z" fill="#FF9900"/>
</g>
</g>
</g>
</g>
<path d="M57.0398 64.2422H41.8048L39.3626 70.8403H28.9346L43.7237 33.4512H55.2372L70.0263 70.8403H59.5014L57.0398 64.2422ZM54.4812 57.2007L49.4223 43.5079L44.4215 57.2007H54.4812Z" fill="#FFF5E5"/>
</svg>
