<svg width="184" height="99" viewBox="0 0 184 99" fill="none" xmlns="http://www.w3.org/2000/svg">
<path d="M15.7448 47.2893C12.7967 47.2893 10.1529 46.8544 7.819 45.9795C5.48238 45.0998 3.61308 43.7998 2.21111 42.0795C0.814479 40.3592 0.0774421 38.2919 0 35.8727H10.4574C10.6123 37.2411 11.1303 38.2846 12.0062 39.0005C12.8875 39.719 14.0384 40.0757 15.4564 40.0757C16.9145 40.0757 18.0654 39.7703 18.9066 39.1569C19.7531 38.546 20.1777 37.6956 20.1777 36.6058C20.1777 35.6943 19.8386 34.9417 19.1629 34.3479C18.4927 33.7492 17.6702 33.258 16.6955 32.8719C15.7181 32.4883 14.3295 32.0508 12.5296 31.5621C9.92329 30.8266 7.79229 30.0911 6.14197 29.3531C4.49699 28.6175 3.079 27.5326 1.89066 26.0982C0.707662 24.6589 0.117499 22.7797 0.117499 20.4583C0.117499 17.0249 1.47674 14.337 4.1979 12.3943C6.91639 10.4467 10.46 9.47168 14.8262 9.47168C19.2698 9.47168 22.8508 10.4467 25.572 12.3943C28.2985 14.337 29.7592 17.0445 29.9515 20.5169H19.3125C19.2324 19.3244 18.7517 18.3861 17.8705 17.7018C16.9946 17.0176 15.865 16.6755 14.4844 16.6755C13.2934 16.6755 12.3373 16.9663 11.611 17.5454C10.8846 18.1197 10.5215 18.9505 10.5215 20.0379C10.5215 21.2304 11.133 22.1639 12.3587 22.8335C13.5818 23.4981 15.4991 24.2166 18.1055 24.9839C20.7118 25.7927 22.8268 26.5649 24.4504 27.3004C26.0793 28.0384 27.4893 29.1063 28.6803 30.5065C29.8687 31.9091 30.4642 33.7125 30.4642 35.9216C30.4642 38.028 29.8794 39.9389 28.7124 41.6592C27.5427 43.3795 25.8443 44.748 23.6172 45.7645C21.3954 46.7811 18.7704 47.2893 15.7448 47.2893Z" fill="#FFF5E5"/>
<path d="M46.3311 9.99951V46.9179H36.5039V9.99951H46.3311Z" fill="#FFF5E5"/>
<path d="M99.1572 9.99951V46.9179H89.3194V24.7786L80.304 46.9179H72.3675L63.2881 24.72V46.9179H53.4609V9.99951H65.0719L76.3945 35.5599L87.5996 9.99951H99.1572Z" fill="#FFF5E5"/>
<path d="M184 9.99951V17.2033H173.308V46.9179H163.48V17.2033H152.788V9.99951H184Z" fill="#FFF5E5"/>
<mask id="mask0_133_5" style="mask-type:luminance" maskUnits="userSpaceOnUse" x="100" y="0" width="55" height="59">
<path d="M100.033 0H154.04V58.178H100.033V0Z" fill="white"/>
</mask>
<g mask="url(#mask0_133_5)">
<mask id="mask1_133_5" style="mask-type:luminance" maskUnits="userSpaceOnUse" x="86" y="-9" width="83" height="76">
<path d="M86.3525 26.1934L131.838 -8.14209L168.054 32.0337L122.569 66.3667L86.3525 26.1934Z" fill="white"/>
</mask>
<g mask="url(#mask1_133_5)">
<mask id="mask2_133_5" style="mask-type:luminance" maskUnits="userSpaceOnUse" x="86" y="-9" width="83" height="76">
<path d="M86.3525 26.1934L131.838 -8.14209L168.054 32.0337L122.569 66.3667L86.3525 26.1934Z" fill="white"/>
</mask>
<g mask="url(#mask2_133_5)">
<mask id="mask3_133_5" style="mask-type:luminance" maskUnits="userSpaceOnUse" x="86" y="-9" width="83" height="76">
<path d="M86.3525 26.1934L131.838 -8.14209L168.054 32.0337L122.569 66.3667L86.3525 26.1934Z" fill="white"/>
</mask>
<g mask="url(#mask3_133_5)">
<path d="M117.436 6.48017L132.099 17.4619L132.967 12.577C141.79 15.1648 147.468 23.3046 145.922 31.9477C144.901 37.766 140.797 42.4358 135.389 44.8134L138.677 51.0789C146.231 47.7702 151.967 41.2066 153.391 33.0473C155.602 20.6264 147.121 8.88226 134.137 5.64934L135.064 0.375977L117.436 6.48017ZM121.477 45.6296C112.651 43.0443 106.968 34.8996 108.485 26.2858C109.521 20.4553 113.601 15.7977 119.014 13.4176L115.727 7.14728C108.17 10.4584 102.436 17.0073 100.992 25.1569C98.7913 37.5705 107.267 49.3244 120.248 52.5622L119.305 57.8356L137.005 51.7191L122.342 40.7301L121.477 45.6296Z" fill="#FF9900"/>
</g>
</g>
</g>
</g>
<mask id="mask4_133_5" style="mask-type:luminance" maskUnits="userSpaceOnUse" x="115" y="8" width="25" height="43">
<path d="M139.684 8.13232H115.073V50.0455H139.684V8.13232Z" fill="white"/>
</mask>
<g mask="url(#mask4_133_5)">
<path d="M131.467 35.4032H123.071L121.725 39.0393H115.979L124.129 18.4346H130.474L138.624 39.0393H132.824L131.467 35.4032ZM130.057 31.5227L127.269 23.9767L124.513 31.5227H130.057Z" fill="#FFF5E5"/>
</g>
<path d="M8.83798 76.2622C8.28598 76.2622 7.79798 76.1662 7.37398 75.9742C6.95798 75.7822 6.62998 75.5142 6.38998 75.1702C6.14998 74.8262 6.02198 74.4422 6.00598 74.0182H6.89398C6.93398 74.4262 7.11398 74.7862 7.43398 75.0982C7.75398 75.4022 8.22198 75.5542 8.83798 75.5542C9.40598 75.5542 9.85398 75.4102 10.182 75.1222C10.518 74.8262 10.686 74.4542 10.686 74.0062C10.686 73.6462 10.594 73.3582 10.41 73.1422C10.226 72.9182 9.99798 72.7542 9.72598 72.6502C9.45398 72.5382 9.07798 72.4182 8.59798 72.2902C8.03798 72.1382 7.59398 71.9902 7.26598 71.8462C6.93798 71.7022 6.65798 71.4782 6.42598 71.1742C6.19398 70.8702 6.07798 70.4582 6.07798 69.9382C6.07798 69.5062 6.18998 69.1222 6.41398 68.7862C6.63798 68.4422 6.95398 68.1742 7.36198 67.9822C7.76998 67.7902 8.23798 67.6942 8.76598 67.6942C9.54198 67.6942 10.166 67.8862 10.638 68.2702C11.118 68.6462 11.394 69.1342 11.466 69.7342H10.554C10.498 69.3902 10.31 69.0862 9.98998 68.8222C9.66998 68.5502 9.23798 68.4142 8.69398 68.4142C8.18998 68.4142 7.76998 68.5502 7.43398 68.8222C7.09798 69.0862 6.92998 69.4502 6.92998 69.9142C6.92998 70.2662 7.02198 70.5502 7.20598 70.7662C7.38998 70.9822 7.61798 71.1462 7.88998 71.2582C8.16998 71.3702 8.54598 71.4902 9.01798 71.6182C9.56198 71.7702 10.002 71.9222 10.338 72.0742C10.674 72.2182 10.958 72.4422 11.19 72.7462C11.422 73.0502 11.538 73.4582 11.538 73.9702C11.538 74.3622 11.434 74.7342 11.226 75.0862C11.018 75.4382 10.71 75.7222 10.302 75.9382C9.89398 76.1542 9.40598 76.2622 8.83798 76.2622ZM13.5812 68.3902C13.4132 68.3902 13.2692 68.3302 13.1492 68.2102C13.0292 68.0902 12.9692 67.9422 12.9692 67.7662C12.9692 67.5902 13.0292 67.4462 13.1492 67.3342C13.2692 67.2142 13.4132 67.1542 13.5812 67.1542C13.7492 67.1542 13.8932 67.2142 14.0132 67.3342C14.1332 67.4462 14.1932 67.5902 14.1932 67.7662C14.1932 67.9422 14.1332 68.0902 14.0132 68.2102C13.8932 68.3302 13.7492 68.3902 13.5812 68.3902ZM14.0012 69.6262V76.1782H13.1612V69.6262H14.0012ZM18.1594 76.2742C17.4074 76.2742 16.7914 76.1022 16.3114 75.7582C15.8394 75.4062 15.5754 74.9302 15.5194 74.3302H16.3834C16.4234 74.6982 16.5954 74.9982 16.8994 75.2302C17.2114 75.4542 17.6274 75.5662 18.1474 75.5662C18.6034 75.5662 18.9594 75.4582 19.2154 75.2422C19.4794 75.0262 19.6114 74.7582 19.6114 74.4382C19.6114 74.2142 19.5394 74.0302 19.3954 73.8862C19.2514 73.7422 19.0674 73.6302 18.8434 73.5502C18.6274 73.4622 18.3314 73.3702 17.9554 73.2742C17.4674 73.1462 17.0714 73.0182 16.7674 72.8902C16.4634 72.7622 16.2034 72.5742 15.9874 72.3262C15.7794 72.0702 15.6754 71.7302 15.6754 71.3062C15.6754 70.9862 15.7714 70.6902 15.9634 70.4182C16.1554 70.1462 16.4274 69.9302 16.7794 69.7702C17.1314 69.6102 17.5314 69.5302 17.9794 69.5302C18.6834 69.5302 19.2514 69.7102 19.6834 70.0702C20.1154 70.4222 20.3474 70.9102 20.3794 71.5342H19.5394C19.5154 71.1502 19.3634 70.8422 19.0834 70.6102C18.8114 70.3702 18.4354 70.2502 17.9554 70.2502C17.5314 70.2502 17.1874 70.3502 16.9234 70.5502C16.6594 70.7502 16.5274 70.9982 16.5274 71.2942C16.5274 71.5502 16.6034 71.7622 16.7554 71.9302C16.9154 72.0902 17.1114 72.2182 17.3434 72.3142C17.5754 72.4022 17.8874 72.5022 18.2794 72.6142C18.7514 72.7422 19.1274 72.8662 19.4074 72.9862C19.6874 73.1062 19.9274 73.2822 20.1274 73.5142C20.3274 73.7462 20.4314 74.0542 20.4394 74.4382C20.4394 74.7902 20.3434 75.1062 20.1514 75.3862C19.9594 75.6582 19.6914 75.8742 19.3474 76.0342C19.0034 76.1942 18.6074 76.2742 18.1594 76.2742ZM23.1125 70.3342V74.4022C23.1125 74.8022 23.1885 75.0782 23.3405 75.2302C23.4925 75.3822 23.7605 75.4582 24.1445 75.4582H24.9125V76.1782H24.0125C23.4205 76.1782 22.9805 76.0422 22.6925 75.7702C22.4045 75.4902 22.2605 75.0342 22.2605 74.4022V70.3342H21.3485V69.6262H22.2605V67.9822H23.1125V69.6262H24.9125V70.3342H23.1125ZM32.2259 72.5662C32.2259 72.8542 32.2179 73.0742 32.2019 73.2262H26.7659C26.7899 73.7222 26.9099 74.1462 27.1259 74.4982C27.3419 74.8502 27.6259 75.1182 27.9779 75.3022C28.3299 75.4782 28.7139 75.5662 29.1299 75.5662C29.6739 75.5662 30.1299 75.4342 30.4979 75.1702C30.8739 74.9062 31.1219 74.5502 31.2419 74.1022H32.1299C31.9699 74.7422 31.6259 75.2662 31.0979 75.6742C30.5779 76.0742 29.9219 76.2742 29.1299 76.2742C28.5139 76.2742 27.9619 76.1382 27.4739 75.8662C26.9859 75.5862 26.6019 75.1942 26.3219 74.6902C26.0499 74.1782 25.9139 73.5822 25.9139 72.9022C25.9139 72.2222 26.0499 71.6262 26.3219 71.1142C26.5939 70.6022 26.9739 70.2102 27.4619 69.9382C27.9499 69.6662 28.5059 69.5302 29.1299 69.5302C29.7539 69.5302 30.2979 69.6662 30.7619 69.9382C31.2339 70.2102 31.5939 70.5782 31.8419 71.0422C32.0979 71.4982 32.2259 72.0062 32.2259 72.5662ZM31.3739 72.5422C31.3819 72.0542 31.2819 71.6382 31.0739 71.2942C30.8739 70.9502 30.5979 70.6902 30.2459 70.5142C29.8939 70.3382 29.5099 70.2502 29.0939 70.2502C28.4699 70.2502 27.9379 70.4502 27.4979 70.8502C27.0579 71.2502 26.8139 71.8142 26.7659 72.5422H31.3739ZM41.5627 69.5062C42.3307 69.5062 42.9547 69.7502 43.4347 70.2382C43.9227 70.7182 44.1667 71.4182 44.1667 72.3382V76.1782H43.3387V72.4342C43.3387 71.7222 43.1667 71.1782 42.8227 70.8022C42.4787 70.4262 42.0107 70.2382 41.4187 70.2382C40.8027 70.2382 40.3107 70.4422 39.9427 70.8502C39.5747 71.2582 39.3907 71.8502 39.3907 72.6262V76.1782H38.5627V72.4342C38.5627 71.7222 38.3907 71.1782 38.0467 70.8022C37.7027 70.4262 37.2307 70.2382 36.6307 70.2382C36.0147 70.2382 35.5227 70.4422 35.1547 70.8502C34.7867 71.2582 34.6027 71.8502 34.6027 72.6262V76.1782H33.7627V69.6262H34.6027V70.7542C34.8107 70.3462 35.1067 70.0382 35.4907 69.8302C35.8747 69.6142 36.3027 69.5062 36.7747 69.5062C37.3427 69.5062 37.8387 69.6422 38.2627 69.9142C38.6947 70.1862 39.0067 70.5862 39.1987 71.1142C39.3747 70.5942 39.6747 70.1982 40.0987 69.9262C40.5307 69.6462 41.0187 69.5062 41.5627 69.5062ZM50.1652 67.7902V76.1782H49.3252V67.7902H50.1652ZM55.1394 69.5062C55.9234 69.5062 56.5634 69.7502 57.0594 70.2382C57.5554 70.7182 57.8034 71.4182 57.8034 72.3382V76.1782H56.9754V72.4342C56.9754 71.7222 56.7954 71.1782 56.4354 70.8022C56.0834 70.4262 55.5994 70.2382 54.9834 70.2382C54.3514 70.2382 53.8474 70.4382 53.4714 70.8382C53.0954 71.2382 52.9074 71.8262 52.9074 72.6022V76.1782H52.0674V69.6262H52.9074V70.7422C53.1154 70.3422 53.4154 70.0382 53.8074 69.8302C54.1994 69.6142 54.6434 69.5062 55.1394 69.5062ZM62.2412 70.3342H60.7172V76.1782H59.8772V70.3342H58.9652V69.6262H59.8772V69.1702C59.8772 68.4582 60.0572 67.9342 60.4172 67.5982C60.7852 67.2622 61.3772 67.0942 62.1932 67.0942V67.8142C61.6492 67.8142 61.2652 67.9182 61.0412 68.1262C60.8252 68.3342 60.7172 68.6822 60.7172 69.1702V69.6262H62.2412V70.3342ZM66.4315 76.2742C65.8155 76.2742 65.2595 76.1382 64.7635 75.8662C64.2755 75.5862 63.8875 75.1942 63.5995 74.6902C63.3195 74.1782 63.1795 73.5822 63.1795 72.9022C63.1795 72.2222 63.3235 71.6302 63.6115 71.1262C63.8995 70.6142 64.2915 70.2222 64.7875 69.9502C65.2835 69.6702 65.8395 69.5302 66.4555 69.5302C67.0715 69.5302 67.6275 69.6702 68.1235 69.9502C68.6275 70.2222 69.0195 70.6142 69.2995 71.1262C69.5875 71.6302 69.7315 72.2222 69.7315 72.9022C69.7315 73.5742 69.5875 74.1662 69.2995 74.6782C69.0115 75.1902 68.6155 75.5862 68.1115 75.8662C67.6075 76.1382 67.0475 76.2742 66.4315 76.2742ZM66.4315 75.5422C66.8635 75.5422 67.2635 75.4462 67.6315 75.2542C67.9995 75.0542 68.2955 74.7582 68.5195 74.3662C68.7515 73.9662 68.8675 73.4782 68.8675 72.9022C68.8675 72.3262 68.7555 71.8422 68.5315 71.4502C68.3075 71.0502 68.0115 70.7542 67.6435 70.5622C67.2755 70.3622 66.8755 70.2622 66.4435 70.2622C66.0115 70.2622 65.6115 70.3622 65.2435 70.5622C64.8755 70.7542 64.5795 71.0502 64.3555 71.4502C64.1395 71.8422 64.0315 72.3262 64.0315 72.9022C64.0315 73.4782 64.1395 73.9662 64.3555 74.3662C64.5795 74.7582 64.8715 75.0542 65.2315 75.2542C65.5995 75.4462 65.9995 75.5422 66.4315 75.5422ZM72.1027 70.7902C72.2867 70.3822 72.5667 70.0662 72.9427 69.8422C73.3267 69.6182 73.7947 69.5062 74.3467 69.5062V70.3822H74.1187C73.5107 70.3822 73.0227 70.5462 72.6547 70.8742C72.2867 71.2022 72.1027 71.7502 72.1027 72.5182V76.1782H71.2627V69.6262H72.1027V70.7902ZM83.4104 69.5062C84.1784 69.5062 84.8024 69.7502 85.2824 70.2382C85.7704 70.7182 86.0144 71.4182 86.0144 72.3382V76.1782H85.1864V72.4342C85.1864 71.7222 85.0144 71.1782 84.6704 70.8022C84.3264 70.4262 83.8584 70.2382 83.2664 70.2382C82.6504 70.2382 82.1584 70.4422 81.7904 70.8502C81.4224 71.2582 81.2384 71.8502 81.2384 72.6262V76.1782H80.4104V72.4342C80.4104 71.7222 80.2384 71.1782 79.8944 70.8022C79.5504 70.4262 79.0784 70.2382 78.4784 70.2382C77.8624 70.2382 77.3704 70.4422 77.0024 70.8502C76.6344 71.2582 76.4504 71.8502 76.4504 72.6262V76.1782H75.6104V69.6262H76.4504V70.7542C76.6584 70.3462 76.9544 70.0382 77.3384 69.8302C77.7224 69.6142 78.1504 69.5062 78.6224 69.5062C79.1904 69.5062 79.6864 69.6422 80.1104 69.9142C80.5424 70.1862 80.8544 70.5862 81.0464 71.1142C81.2224 70.5942 81.5224 70.1982 81.9464 69.9262C82.3784 69.6462 82.8664 69.5062 83.4104 69.5062ZM87.4959 72.8902C87.4959 72.2182 87.6279 71.6302 87.8919 71.1262C88.1639 70.6142 88.5359 70.2222 89.0079 69.9502C89.4879 69.6702 90.0279 69.5302 90.6279 69.5302C91.2519 69.5302 91.7879 69.6742 92.2359 69.9622C92.6919 70.2502 93.0199 70.6182 93.2199 71.0662V69.6262H94.0599V76.1782H93.2199V74.7262C93.0119 75.1742 92.6799 75.5462 92.2239 75.8422C91.7759 76.1302 91.2399 76.2742 90.6159 76.2742C90.0239 76.2742 89.4879 76.1342 89.0079 75.8542C88.5359 75.5742 88.1639 75.1782 87.8919 74.6662C87.6279 74.1542 87.4959 73.5622 87.4959 72.8902ZM93.2199 72.9022C93.2199 72.3742 93.1119 71.9102 92.8959 71.5102C92.6799 71.1102 92.3839 70.8022 92.0079 70.5862C91.6399 70.3702 91.2319 70.2622 90.7839 70.2622C90.3199 70.2622 89.9039 70.3662 89.5359 70.5742C89.1679 70.7822 88.8759 71.0862 88.6599 71.4862C88.4519 71.8782 88.3479 72.3462 88.3479 72.8902C88.3479 73.4262 88.4519 73.8982 88.6599 74.3062C88.8759 74.7062 89.1679 75.0142 89.5359 75.2302C89.9039 75.4382 90.3199 75.5422 90.7839 75.5422C91.2319 75.5422 91.6399 75.4342 92.0079 75.2182C92.3839 75.0022 92.6799 74.6942 92.8959 74.2942C93.1119 73.8942 93.2199 73.4302 93.2199 72.9022ZM98.2336 76.2742C97.4816 76.2742 96.8656 76.1022 96.3856 75.7582C95.9136 75.4062 95.6496 74.9302 95.5936 74.3302H96.4576C96.4976 74.6982 96.6696 74.9982 96.9736 75.2302C97.2856 75.4542 97.7016 75.5662 98.2216 75.5662C98.6776 75.5662 99.0336 75.4582 99.2896 75.2422C99.5536 75.0262 99.6856 74.7582 99.6856 74.4382C99.6856 74.2142 99.6136 74.0302 99.4696 73.8862C99.3256 73.7422 99.1416 73.6302 98.9176 73.5502C98.7016 73.4622 98.4056 73.3702 98.0296 73.2742C97.5416 73.1462 97.1456 73.0182 96.8416 72.8902C96.5376 72.7622 96.2776 72.5742 96.0616 72.3262C95.8536 72.0702 95.7496 71.7302 95.7496 71.3062C95.7496 70.9862 95.8456 70.6902 96.0376 70.4182C96.2296 70.1462 96.5016 69.9302 96.8536 69.7702C97.2056 69.6102 97.6056 69.5302 98.0536 69.5302C98.7576 69.5302 99.3256 69.7102 99.7576 70.0702C100.19 70.4222 100.422 70.9102 100.454 71.5342H99.6136C99.5896 71.1502 99.4376 70.8422 99.1576 70.6102C98.8856 70.3702 98.5096 70.2502 98.0296 70.2502C97.6056 70.2502 97.2616 70.3502 96.9976 70.5502C96.7336 70.7502 96.6016 70.9982 96.6016 71.2942C96.6016 71.5502 96.6776 71.7622 96.8296 71.9302C96.9896 72.0902 97.1856 72.2182 97.4176 72.3142C97.6496 72.4022 97.9616 72.5022 98.3536 72.6142C98.8256 72.7422 99.2016 72.8662 99.4816 72.9862C99.7616 73.1062 100.002 73.2822 100.202 73.5142C100.402 73.7462 100.506 74.0542 100.514 74.4382C100.514 74.7902 100.418 75.1062 100.226 75.3862C100.034 75.6582 99.7656 75.8742 99.4216 76.0342C99.0776 76.1942 98.6816 76.2742 98.2336 76.2742ZM102.515 68.3902C102.347 68.3902 102.203 68.3302 102.083 68.2102C101.963 68.0902 101.903 67.9422 101.903 67.7662C101.903 67.5902 101.963 67.4462 102.083 67.3342C102.203 67.2142 102.347 67.1542 102.515 67.1542C102.683 67.1542 102.827 67.2142 102.947 67.3342C103.067 67.4462 103.127 67.5902 103.127 67.7662C103.127 67.9422 103.067 68.0902 102.947 68.2102C102.827 68.3302 102.683 68.3902 102.515 68.3902ZM102.935 69.6262V76.1782H102.095V69.6262H102.935ZM116.326 67.8982V76.1782H115.486V69.5662L112.534 76.1782H111.922L108.97 69.5902V76.1782H108.13V67.8982H109.018L112.222 75.0742L115.426 67.8982H116.326ZM117.847 72.8902C117.847 72.2182 117.979 71.6302 118.243 71.1262C118.515 70.6142 118.887 70.2222 119.359 69.9502C119.839 69.6702 120.379 69.5302 120.979 69.5302C121.603 69.5302 122.139 69.6742 122.587 69.9622C123.043 70.2502 123.371 70.6182 123.571 71.0662V69.6262H124.411V76.1782H123.571V74.7262C123.363 75.1742 123.031 75.5462 122.575 75.8422C122.127 76.1302 121.591 76.2742 120.967 76.2742C120.375 76.2742 119.839 76.1342 119.359 75.8542C118.887 75.5742 118.515 75.1782 118.243 74.6662C117.979 74.1542 117.847 73.5622 117.847 72.8902ZM123.571 72.9022C123.571 72.3742 123.463 71.9102 123.247 71.5102C123.031 71.1102 122.735 70.8022 122.359 70.5862C121.991 70.3702 121.583 70.2622 121.135 70.2622C120.671 70.2622 120.255 70.3662 119.887 70.5742C119.519 70.7822 119.227 71.0862 119.011 71.4862C118.803 71.8782 118.699 72.3462 118.699 72.8902C118.699 73.4262 118.803 73.8982 119.011 74.3062C119.227 74.7062 119.519 75.0142 119.887 75.2302C120.255 75.4382 120.671 75.5422 121.135 75.5422C121.583 75.5422 121.991 75.4342 122.359 75.2182C122.735 75.0022 123.031 74.6942 123.247 74.2942C123.463 73.8942 123.571 73.4302 123.571 72.9022ZM129.401 69.5062C130.185 69.5062 130.825 69.7502 131.321 70.2382C131.817 70.7182 132.065 71.4182 132.065 72.3382V76.1782H131.237V72.4342C131.237 71.7222 131.057 71.1782 130.697 70.8022C130.345 70.4262 129.861 70.2382 129.245 70.2382C128.613 70.2382 128.109 70.4382 127.733 70.8382C127.357 71.2382 127.169 71.8262 127.169 72.6022V76.1782H126.329V69.6262H127.169V70.7422C127.377 70.3422 127.677 70.0382 128.069 69.8302C128.461 69.6142 128.905 69.5062 129.401 69.5062ZM133.539 72.8902C133.539 72.2182 133.671 71.6302 133.935 71.1262C134.207 70.6142 134.579 70.2222 135.051 69.9502C135.531 69.6702 136.071 69.5302 136.671 69.5302C137.295 69.5302 137.831 69.6742 138.279 69.9622C138.735 70.2502 139.063 70.6182 139.263 71.0662V69.6262H140.103V76.1782H139.263V74.7262C139.055 75.1742 138.723 75.5462 138.267 75.8422C137.819 76.1302 137.283 76.2742 136.659 76.2742C136.067 76.2742 135.531 76.1342 135.051 75.8542C134.579 75.5742 134.207 75.1782 133.935 74.6662C133.671 74.1542 133.539 73.5622 133.539 72.8902ZM139.263 72.9022C139.263 72.3742 139.155 71.9102 138.939 71.5102C138.723 71.1102 138.427 70.8022 138.051 70.5862C137.683 70.3702 137.275 70.2622 136.827 70.2622C136.363 70.2622 135.947 70.3662 135.579 70.5742C135.211 70.7822 134.919 71.0862 134.703 71.4862C134.495 71.8782 134.391 72.3462 134.391 72.8902C134.391 73.4262 134.495 73.8982 134.703 74.3062C134.919 74.7062 135.211 75.0142 135.579 75.2302C135.947 75.4382 136.363 75.5422 136.827 75.5422C137.275 75.5422 137.683 75.4342 138.051 75.2182C138.427 75.0022 138.723 74.6942 138.939 74.2942C139.155 73.8942 139.263 73.4302 139.263 72.9022ZM142.501 68.3902C142.333 68.3902 142.189 68.3302 142.069 68.2102C141.949 68.0902 141.889 67.9422 141.889 67.7662C141.889 67.5902 141.949 67.4462 142.069 67.3342C142.189 67.2142 142.333 67.1542 142.501 67.1542C142.669 67.1542 142.809 67.2142 142.921 67.3342C143.041 67.4462 143.101 67.5902 143.101 67.7662C143.101 67.9422 143.041 68.0902 142.921 68.2102C142.809 68.3302 142.669 68.3902 142.501 68.3902ZM142.909 77.7262C142.909 78.2542 142.777 78.6422 142.513 78.8902C142.249 79.1462 141.853 79.2742 141.325 79.2742H140.737V78.5542H141.193C141.505 78.5542 141.729 78.4862 141.865 78.3502C142.001 78.2222 142.069 78.0022 142.069 77.6902V69.6262H142.909V77.7262ZM150.761 72.5662C150.761 72.8542 150.753 73.0742 150.737 73.2262H145.301C145.325 73.7222 145.445 74.1462 145.661 74.4982C145.877 74.8502 146.161 75.1182 146.513 75.3022C146.865 75.4782 147.249 75.5662 147.665 75.5662C148.209 75.5662 148.665 75.4342 149.033 75.1702C149.409 74.9062 149.657 74.5502 149.777 74.1022H150.665C150.505 74.7422 150.161 75.2662 149.633 75.6742C149.113 76.0742 148.457 76.2742 147.665 76.2742C147.049 76.2742 146.497 76.1382 146.009 75.8662C145.521 75.5862 145.137 75.1942 144.857 74.6902C144.585 74.1782 144.449 73.5822 144.449 72.9022C144.449 72.2222 144.585 71.6262 144.857 71.1142C145.129 70.6022 145.509 70.2102 145.997 69.9382C146.485 69.6662 147.041 69.5302 147.665 69.5302C148.289 69.5302 148.833 69.6662 149.297 69.9382C149.769 70.2102 150.129 70.5782 150.377 71.0422C150.633 71.4982 150.761 72.0062 150.761 72.5662ZM149.909 72.5422C149.917 72.0542 149.817 71.6382 149.609 71.2942C149.409 70.9502 149.133 70.6902 148.781 70.5142C148.429 70.3382 148.045 70.2502 147.629 70.2502C147.005 70.2502 146.473 70.4502 146.033 70.8502C145.593 71.2502 145.349 71.8142 145.301 72.5422H149.909ZM160.098 69.5062C160.866 69.5062 161.49 69.7502 161.97 70.2382C162.458 70.7182 162.702 71.4182 162.702 72.3382V76.1782H161.874V72.4342C161.874 71.7222 161.702 71.1782 161.358 70.8022C161.014 70.4262 160.546 70.2382 159.954 70.2382C159.338 70.2382 158.846 70.4422 158.478 70.8502C158.11 71.2582 157.926 71.8502 157.926 72.6262V76.1782H157.098V72.4342C157.098 71.7222 156.926 71.1782 156.582 70.8022C156.238 70.4262 155.766 70.2382 155.166 70.2382C154.55 70.2382 154.058 70.4422 153.69 70.8502C153.322 71.2582 153.138 71.8502 153.138 72.6262V76.1782H152.298V69.6262H153.138V70.7542C153.346 70.3462 153.642 70.0382 154.026 69.8302C154.41 69.6142 154.838 69.5062 155.31 69.5062C155.878 69.5062 156.374 69.6422 156.798 69.9142C157.23 70.1862 157.542 70.5862 157.734 71.1142C157.91 70.5942 158.21 70.1982 158.634 69.9262C159.066 69.6462 159.554 69.5062 160.098 69.5062ZM170.495 72.5662C170.495 72.8542 170.487 73.0742 170.471 73.2262H165.035C165.059 73.7222 165.179 74.1462 165.395 74.4982C165.611 74.8502 165.895 75.1182 166.247 75.3022C166.599 75.4782 166.983 75.5662 167.399 75.5662C167.943 75.5662 168.399 75.4342 168.767 75.1702C169.143 74.9062 169.391 74.5502 169.511 74.1022H170.399C170.239 74.7422 169.895 75.2662 169.367 75.6742C168.847 76.0742 168.191 76.2742 167.399 76.2742C166.783 76.2742 166.231 76.1382 165.743 75.8662C165.255 75.5862 164.871 75.1942 164.591 74.6902C164.319 74.1782 164.183 73.5822 164.183 72.9022C164.183 72.2222 164.319 71.6262 164.591 71.1142C164.863 70.6022 165.243 70.2102 165.731 69.9382C166.219 69.6662 166.775 69.5302 167.399 69.5302C168.023 69.5302 168.567 69.6662 169.031 69.9382C169.503 70.2102 169.863 70.5782 170.111 71.0422C170.367 71.4982 170.495 72.0062 170.495 72.5662ZM169.643 72.5422C169.651 72.0542 169.551 71.6382 169.343 71.2942C169.143 70.9502 168.867 70.6902 168.515 70.5142C168.163 70.3382 167.779 70.2502 167.363 70.2502C166.739 70.2502 166.207 70.4502 165.767 70.8502C165.327 71.2502 165.083 71.8142 165.035 72.5422H169.643ZM175.104 69.5062C175.888 69.5062 176.528 69.7502 177.024 70.2382C177.52 70.7182 177.768 71.4182 177.768 72.3382V76.1782H176.94V72.4342C176.94 71.7222 176.76 71.1782 176.4 70.8022C176.048 70.4262 175.564 70.2382 174.948 70.2382C174.316 70.2382 173.812 70.4382 173.436 70.8382C173.06 71.2382 172.872 71.8262 172.872 72.6022V76.1782H172.032V69.6262H172.872V70.7422C173.08 70.3422 173.38 70.0382 173.772 69.8302C174.164 69.6142 174.608 69.5062 175.104 69.5062ZM39.8708 92.1862H36.0548L35.3228 94.1782H34.4348L37.4948 85.8982H38.4428L41.4908 94.1782H40.6028L39.8708 92.1862ZM39.6188 91.4902L37.9628 86.9542L36.3068 91.4902H39.6188ZM48.5149 87.6262V94.1782H47.6749V93.0262C47.4829 93.4342 47.1869 93.7462 46.7869 93.9622C46.3869 94.1782 45.9389 94.2862 45.4429 94.2862C44.6589 94.2862 44.0189 94.0462 43.5229 93.5662C43.0269 93.0782 42.7789 92.3742 42.7789 91.4542V87.6262H43.6069V91.3582C43.6069 92.0702 43.7829 92.6142 44.1349 92.9902C44.4949 93.3662 44.9829 93.5542 45.5989 93.5542C46.2309 93.5542 46.7349 93.3542 47.1109 92.9542C47.4869 92.5542 47.6749 91.9662 47.6749 91.1902V87.6262H48.5149ZM51.5247 88.3342V92.4022C51.5247 92.8022 51.6007 93.0782 51.7527 93.2302C51.9047 93.3822 52.1727 93.4582 52.5567 93.4582H53.3247V94.1782H52.4247C51.8327 94.1782 51.3927 94.0422 51.1047 93.7702C50.8167 93.4902 50.6727 93.0342 50.6727 92.4022V88.3342H49.7607V87.6262H50.6727V85.9822H51.5247V87.6262H53.3247V88.3342H51.5247ZM57.578 94.2742C56.962 94.2742 56.406 94.1382 55.91 93.8662C55.422 93.5862 55.034 93.1942 54.746 92.6902C54.466 92.1782 54.326 91.5822 54.326 90.9022C54.326 90.2222 54.47 89.6302 54.758 89.1262C55.046 88.6142 55.438 88.2222 55.934 87.9502C56.43 87.6702 56.986 87.5302 57.602 87.5302C58.218 87.5302 58.774 87.6702 59.27 87.9502C59.774 88.2222 60.166 88.6142 60.446 89.1262C60.734 89.6302 60.878 90.2222 60.878 90.9022C60.878 91.5742 60.734 92.1662 60.446 92.6782C60.158 93.1902 59.762 93.5862 59.258 93.8662C58.754 94.1382 58.194 94.2742 57.578 94.2742ZM57.578 93.5422C58.01 93.5422 58.41 93.4462 58.778 93.2542C59.146 93.0542 59.442 92.7582 59.666 92.3662C59.898 91.9662 60.014 91.4782 60.014 90.9022C60.014 90.3262 59.902 89.8422 59.678 89.4502C59.454 89.0502 59.158 88.7542 58.79 88.5622C58.422 88.3622 58.022 88.2622 57.59 88.2622C57.158 88.2622 56.758 88.3622 56.39 88.5622C56.022 88.7542 55.726 89.0502 55.502 89.4502C55.286 89.8422 55.178 90.3262 55.178 90.9022C55.178 91.4782 55.286 91.9662 55.502 92.3662C55.726 92.7582 56.018 93.0542 56.378 93.2542C56.746 93.4462 57.146 93.5422 57.578 93.5422ZM70.2092 87.5062C70.9772 87.5062 71.6012 87.7502 72.0812 88.2382C72.5692 88.7182 72.8132 89.4182 72.8132 90.3382V94.1782H71.9852V90.4342C71.9852 89.7222 71.8132 89.1782 71.4692 88.8022C71.1252 88.4262 70.6572 88.2382 70.0652 88.2382C69.4492 88.2382 68.9572 88.4422 68.5892 88.8502C68.2212 89.2582 68.0372 89.8502 68.0372 90.6262V94.1782H67.2092V90.4342C67.2092 89.7222 67.0372 89.1782 66.6932 88.8022C66.3492 88.4262 65.8772 88.2382 65.2772 88.2382C64.6612 88.2382 64.1692 88.4422 63.8012 88.8502C63.4332 89.2582 63.2492 89.8502 63.2492 90.6262V94.1782H62.4092V87.6262H63.2492V88.7542C63.4572 88.3462 63.7532 88.0382 64.1372 87.8302C64.5212 87.6142 64.9492 87.5062 65.4212 87.5062C65.9892 87.5062 66.4852 87.6422 66.9092 87.9142C67.3412 88.1862 67.6532 88.5862 67.8452 89.1142C68.0212 88.5942 68.3212 88.1982 68.7452 87.9262C69.1772 87.6462 69.6652 87.5062 70.2092 87.5062ZM74.2948 90.8902C74.2948 90.2182 74.4268 89.6302 74.6908 89.1262C74.9628 88.6142 75.3348 88.2222 75.8068 87.9502C76.2868 87.6702 76.8268 87.5302 77.4268 87.5302C78.0508 87.5302 78.5868 87.6742 79.0348 87.9622C79.4908 88.2502 79.8188 88.6182 80.0188 89.0662V87.6262H80.8588V94.1782H80.0188V92.7262C79.8108 93.1742 79.4788 93.5462 79.0228 93.8422C78.5748 94.1302 78.0388 94.2742 77.4148 94.2742C76.8228 94.2742 76.2868 94.1342 75.8068 93.8542C75.3348 93.5742 74.9628 93.1782 74.6908 92.6662C74.4268 92.1542 74.2948 91.5622 74.2948 90.8902ZM80.0188 90.9022C80.0188 90.3742 79.9108 89.9102 79.6948 89.5102C79.4788 89.1102 79.1828 88.8022 78.8068 88.5862C78.4388 88.3702 78.0308 88.2622 77.5828 88.2622C77.1188 88.2622 76.7028 88.3662 76.3348 88.5742C75.9668 88.7822 75.6748 89.0862 75.4588 89.4862C75.2508 89.8782 75.1468 90.3462 75.1468 90.8902C75.1468 91.4262 75.2508 91.8982 75.4588 92.3062C75.6748 92.7062 75.9668 93.0142 76.3348 93.2302C76.7028 93.4382 77.1188 93.5422 77.5828 93.5422C78.0308 93.5422 78.4388 93.4342 78.8068 93.2182C79.1828 93.0022 79.4788 92.6942 79.6948 92.2942C79.9108 91.8942 80.0188 91.4302 80.0188 90.9022ZM83.8684 88.3342V92.4022C83.8684 92.8022 83.9444 93.0782 84.0964 93.2302C84.2484 93.3822 84.5164 93.4582 84.9004 93.4582H85.6684V94.1782H84.7684C84.1764 94.1782 83.7364 94.0422 83.4484 93.7702C83.1604 93.4902 83.0164 93.0342 83.0164 92.4022V88.3342H82.1044V87.6262H83.0164V85.9822H83.8684V87.6262H85.6684V88.3342H83.8684ZM87.4738 86.3902C87.3058 86.3902 87.1618 86.3302 87.0418 86.2102C86.9218 86.0902 86.8618 85.9422 86.8618 85.7662C86.8618 85.5902 86.9218 85.4462 87.0418 85.3342C87.1618 85.2142 87.3058 85.1542 87.4738 85.1542C87.6418 85.1542 87.7858 85.2142 87.9058 85.3342C88.0258 85.4462 88.0858 85.5902 88.0858 85.7662C88.0858 85.9422 88.0258 86.0902 87.9058 86.2102C87.7858 86.3302 87.6418 86.3902 87.4738 86.3902ZM87.8938 87.6262V94.1782H87.0538V87.6262H87.8938ZM92.6639 94.2742C92.0479 94.2742 91.4919 94.1382 90.9959 93.8662C90.5079 93.5862 90.1199 93.1942 89.8319 92.6902C89.5519 92.1782 89.4119 91.5822 89.4119 90.9022C89.4119 90.2222 89.5559 89.6302 89.8439 89.1262C90.1319 88.6142 90.5239 88.2222 91.0199 87.9502C91.5159 87.6702 92.0719 87.5302 92.6879 87.5302C93.3039 87.5302 93.8599 87.6702 94.3559 87.9502C94.8599 88.2222 95.2519 88.6142 95.5319 89.1262C95.8199 89.6302 95.9639 90.2222 95.9639 90.9022C95.9639 91.5742 95.8199 92.1662 95.5319 92.6782C95.2439 93.1902 94.8479 93.5862 94.3439 93.8662C93.8399 94.1382 93.2799 94.2742 92.6639 94.2742ZM92.6639 93.5422C93.0959 93.5422 93.4959 93.4462 93.8639 93.2542C94.2319 93.0542 94.5279 92.7582 94.7519 92.3662C94.9839 91.9662 95.0999 91.4782 95.0999 90.9022C95.0999 90.3262 94.9879 89.8422 94.7639 89.4502C94.5399 89.0502 94.2439 88.7542 93.8759 88.5622C93.5079 88.3622 93.1079 88.2622 92.6759 88.2622C92.2439 88.2622 91.8439 88.3622 91.4759 88.5622C91.1079 88.7542 90.8119 89.0502 90.5879 89.4502C90.3719 89.8422 90.2639 90.3262 90.2639 90.9022C90.2639 91.4782 90.3719 91.9662 90.5879 92.3662C90.8119 92.7582 91.1039 93.0542 91.4639 93.2542C91.8319 93.4462 92.2319 93.5422 92.6639 93.5422ZM100.567 87.5062C101.351 87.5062 101.991 87.7502 102.487 88.2382C102.983 88.7182 103.231 89.4182 103.231 90.3382V94.1782H102.403V90.4342C102.403 89.7222 102.223 89.1782 101.863 88.8022C101.511 88.4262 101.027 88.2382 100.411 88.2382C99.7792 88.2382 99.2752 88.4382 98.8992 88.8382C98.5232 89.2382 98.3352 89.8262 98.3352 90.6022V94.1782H97.4952V87.6262H98.3352V88.7422C98.5432 88.3422 98.8432 88.0382 99.2352 87.8302C99.6272 87.6142 100.071 87.5062 100.567 87.5062ZM113.29 85.7902V86.4862H110.962V94.1782H110.122V86.4862H107.782V85.7902H113.29ZM120.544 90.5662C120.544 90.8542 120.536 91.0742 120.52 91.2262H115.084C115.108 91.7222 115.228 92.1462 115.444 92.4982C115.66 92.8502 115.944 93.1182 116.296 93.3022C116.648 93.4782 117.032 93.5662 117.448 93.5662C117.992 93.5662 118.448 93.4342 118.816 93.1702C119.192 92.9062 119.44 92.5502 119.56 92.1022H120.448C120.288 92.7422 119.944 93.2662 119.416 93.6742C118.896 94.0742 118.24 94.2742 117.448 94.2742C116.832 94.2742 116.28 94.1382 115.792 93.8662C115.304 93.5862 114.92 93.1942 114.64 92.6902C114.368 92.1782 114.232 91.5822 114.232 90.9022C114.232 90.2222 114.368 89.6262 114.64 89.1142C114.912 88.6022 115.292 88.2102 115.78 87.9382C116.268 87.6662 116.824 87.5302 117.448 87.5302C118.072 87.5302 118.616 87.6662 119.08 87.9382C119.552 88.2102 119.912 88.5782 120.16 89.0422C120.416 89.4982 120.544 90.0062 120.544 90.5662ZM119.692 90.5422C119.7 90.0542 119.6 89.6382 119.392 89.2942C119.192 88.9502 118.916 88.6902 118.564 88.5142C118.212 88.3382 117.828 88.2502 117.412 88.2502C116.788 88.2502 116.256 88.4502 115.816 88.8502C115.376 89.2502 115.132 89.8142 115.084 90.5422H119.692ZM124.337 94.2742C123.585 94.2742 122.969 94.1022 122.489 93.7582C122.017 93.4062 121.753 92.9302 121.697 92.3302H122.561C122.601 92.6982 122.773 92.9982 123.077 93.2302C123.389 93.4542 123.805 93.5662 124.325 93.5662C124.781 93.5662 125.137 93.4582 125.393 93.2422C125.657 93.0262 125.789 92.7582 125.789 92.4382C125.789 92.2142 125.717 92.0302 125.573 91.8862C125.429 91.7422 125.245 91.6302 125.021 91.5502C124.805 91.4622 124.509 91.3702 124.133 91.2742C123.645 91.1462 123.249 91.0182 122.945 90.8902C122.641 90.7622 122.381 90.5742 122.165 90.3262C121.957 90.0702 121.853 89.7302 121.853 89.3062C121.853 88.9862 121.949 88.6902 122.141 88.4182C122.333 88.1462 122.605 87.9302 122.957 87.7702C123.309 87.6102 123.709 87.5302 124.157 87.5302C124.861 87.5302 125.429 87.7102 125.861 88.0702C126.293 88.4222 126.525 88.9102 126.557 89.5342H125.717C125.693 89.1502 125.541 88.8422 125.261 88.6102C124.989 88.3702 124.613 88.2502 124.133 88.2502C123.709 88.2502 123.365 88.3502 123.101 88.5502C122.837 88.7502 122.705 88.9982 122.705 89.2942C122.705 89.5502 122.781 89.7622 122.933 89.9302C123.093 90.0902 123.289 90.2182 123.521 90.3142C123.753 90.4022 124.065 90.5022 124.457 90.6142C124.929 90.7422 125.305 90.8662 125.585 90.9862C125.865 91.1062 126.105 91.2822 126.305 91.5142C126.505 91.7462 126.609 92.0542 126.617 92.4382C126.617 92.7902 126.521 93.1062 126.329 93.3862C126.137 93.6582 125.869 93.8742 125.525 94.0342C125.181 94.1942 124.785 94.2742 124.337 94.2742ZM129.29 88.3342V92.4022C129.29 92.8022 129.366 93.0782 129.518 93.2302C129.67 93.3822 129.938 93.4582 130.322 93.4582H131.09V94.1782H130.19C129.598 94.1782 129.158 94.0422 128.87 93.7702C128.582 93.4902 128.438 93.0342 128.438 92.4022V88.3342H127.526V87.6262H128.438V85.9822H129.29V87.6262H131.09V88.3342H129.29ZM132.896 86.3902C132.728 86.3902 132.584 86.3302 132.464 86.2102C132.344 86.0902 132.284 85.9422 132.284 85.7662C132.284 85.5902 132.344 85.4462 132.464 85.3342C132.584 85.2142 132.728 85.1542 132.896 85.1542C133.064 85.1542 133.208 85.2142 133.328 85.3342C133.448 85.4462 133.508 85.5902 133.508 85.7662C133.508 85.9422 133.448 86.0902 133.328 86.2102C133.208 86.3302 133.064 86.3902 132.896 86.3902ZM133.316 87.6262V94.1782H132.476V87.6262H133.316ZM138.29 87.5062C139.074 87.5062 139.714 87.7502 140.21 88.2382C140.706 88.7182 140.954 89.4182 140.954 90.3382V94.1782H140.126V90.4342C140.126 89.7222 139.946 89.1782 139.586 88.8022C139.234 88.4262 138.75 88.2382 138.134 88.2382C137.502 88.2382 136.998 88.4382 136.622 88.8382C136.246 89.2382 136.058 89.8262 136.058 90.6022V94.1782H135.218V87.6262H136.058V88.7422C136.266 88.3422 136.566 88.0382 136.958 87.8302C137.35 87.6142 137.794 87.5062 138.29 87.5062ZM145.56 87.5302C146.176 87.5302 146.712 87.6742 147.168 87.9622C147.624 88.2502 147.952 88.6142 148.152 89.0542V87.6262H148.992V94.3462C148.992 94.9462 148.86 95.4782 148.596 95.9422C148.34 96.4062 147.98 96.7622 147.516 97.0102C147.052 97.2662 146.524 97.3942 145.932 97.3942C145.092 97.3942 144.392 97.1942 143.832 96.7942C143.28 96.3942 142.936 95.8502 142.8 95.1622H143.628C143.772 95.6182 144.044 95.9822 144.444 96.2542C144.852 96.5262 145.348 96.6622 145.932 96.6622C146.356 96.6622 146.736 96.5702 147.072 96.3862C147.408 96.2102 147.672 95.9462 147.864 95.5942C148.056 95.2422 148.152 94.8262 148.152 94.3462V92.7262C147.944 93.1742 147.612 93.5462 147.156 93.8422C146.708 94.1302 146.176 94.2742 145.56 94.2742C144.96 94.2742 144.42 94.1342 143.94 93.8542C143.468 93.5742 143.096 93.1782 142.824 92.6662C142.56 92.1542 142.428 91.5622 142.428 90.8902C142.428 90.2182 142.56 89.6302 142.824 89.1262C143.096 88.6142 143.468 88.2222 143.94 87.9502C144.42 87.6702 144.96 87.5302 145.56 87.5302ZM148.152 90.9022C148.152 90.3742 148.044 89.9102 147.828 89.5102C147.612 89.1102 147.316 88.8022 146.94 88.5862C146.572 88.3702 146.164 88.2622 145.716 88.2622C145.252 88.2622 144.836 88.3662 144.468 88.5742C144.1 88.7822 143.808 89.0862 143.592 89.4862C143.384 89.8782 143.28 90.3462 143.28 90.8902C143.28 91.4262 143.384 91.8982 143.592 92.3062C143.808 92.7062 144.1 93.0142 144.468 93.2302C144.836 93.4382 145.252 93.5422 145.716 93.5422C146.164 93.5422 146.572 93.4342 146.94 93.2182C147.316 93.0022 147.612 92.6942 147.828 92.2942C148.044 91.8942 148.152 91.4302 148.152 90.9022Z" fill="white"/>
</svg>
