<svg width="121" height="121" viewBox="0 0 121 121" fill="none" xmlns="http://www.w3.org/2000/svg">
<path d="M20.1673 60.4997C20.1673 38.2242 38.2252 20.1663 60.5007 20.1663C82.7763 20.1663 100.834 38.2242 100.834 60.4997C100.834 82.7753 82.7763 100.833 60.5007 100.833C38.2252 100.833 20.1673 82.7753 20.1673 60.4997ZM60.5007 10.083C32.6563 10.083 10.084 32.6553 10.084 60.4997C10.084 88.3438 32.6563 110.916 60.5007 110.916C88.3448 110.916 110.917 88.3438 110.917 60.4997C110.917 32.6553 88.3448 10.083 60.5007 10.083ZM88.0135 47.6793L80.8836 40.5492L55.459 65.9739L41.3782 51.893L34.2481 59.023L55.459 80.2338L88.0135 47.6793Z" fill="#34C759"/>
</svg>
