<svg width="18" height="18" viewBox="0 0 18 18" fill="none" xmlns="http://www.w3.org/2000/svg">
<g clip-path="url(#clip0_92_7387)">
<path d="M14.25 11.25V8.9535C14.2496 8.17043 13.9384 7.41955 13.3848 6.86576C12.8311 6.31198 12.0803 6.0006 11.2972 6H6.702C5.91906 6.00079 5.16845 6.31227 4.61497 6.86603C4.06149 7.41979 3.7504 8.17056 3.75 8.9535V11.25C3.75 11.9394 3.8858 12.6221 4.14963 13.2591C4.41347 13.896 4.80018 14.4748 5.28769 14.9623C5.7752 15.4498 6.35395 15.8365 6.99091 16.1004C7.62787 16.3642 8.31056 16.5 9 16.5C9.68944 16.5 10.3721 16.3642 11.0091 16.1004C11.646 15.8365 12.2248 15.4498 12.7123 14.9623C13.1998 14.4748 13.5865 13.896 13.8504 13.2591C14.1142 12.6221 14.25 11.9394 14.25 11.25Z" stroke="white" stroke-width="1.75"/>
<path d="M12.375 6.375V5.625C12.375 4.72989 12.0194 3.87145 11.3865 3.23851C10.7535 2.60558 9.89511 2.25 9 2.25C8.10489 2.25 7.24645 2.60558 6.61351 3.23851C5.98058 3.87145 5.625 4.72989 5.625 5.625V6.375" stroke="white" stroke-width="1.75"/>
<path d="M14.25 10.5H16.5M3.75 10.5H1.5M10.875 2.625L12.75 1.5M7.125 2.625L5.25 1.5M15.375 15L13.875 14.4M15.375 6L13.875 6.6M2.625 15L4.125 14.4M2.625 6L4.125 6.6M9 16.125V11.25" stroke="white" stroke-width="1.75" stroke-linecap="round"/>
</g>
<defs>
<clipPath id="clip0_92_7387">
<rect width="18" height="18" fill="white"/>
</clipPath>
</defs>
</svg>
