<?xml version="1.0" encoding="UTF-8"?>
<svg version="1.1" xmlns="http://www.w3.org/2000/svg" width="512" height="512">
<path d="M0 0 C1.14001465 0.00902344 2.2800293 0.01804687 3.45458984 0.02734375 C21.75372469 0.40223 39.55036277 6.96997125 53.1875 19.4375 C54.52554688 20.63826172 54.52554688 20.63826172 55.890625 21.86328125 C70.10629425 35.28271765 79.90893345 54.13122261 80.5859375 73.91015625 C80.59376857 76.10677077 80.58588088 78.30349596 80.5625 80.5 C80.57410156 81.59376953 80.58570313 82.68753906 80.59765625 83.81445312 C80.59378906 84.89791016 80.58992188 85.98136719 80.5859375 87.09765625 C80.58255371 88.05293213 80.57916992 89.00820801 80.57568359 89.99243164 C80.01559627 94.96311861 78.59640217 99.64780166 77.1875 104.4375 C78.16833557 104.42861755 79.14917114 104.41973511 80.159729 104.4105835 C89.40015647 104.3295203 98.64051186 104.26954555 107.88121414 104.23025131 C112.63206036 104.20937056 117.38261969 104.1810441 122.13330078 104.13574219 C126.71743339 104.0923017 131.30128994 104.06836657 135.88561249 104.05799103 C137.63515316 104.05059641 139.38467862 104.03615645 141.13410187 104.01457977 C143.58354925 103.98556899 146.03185395 103.98154292 148.48144531 103.98339844 C149.20577255 103.96901733 149.93009979 103.95463623 150.67637634 103.93981934 C154.03896781 103.96740703 155.86025017 104.18892794 158.57176208 106.24853516 C160.8379167 109.31866969 162.03071885 112.63325954 163.26953125 116.203125 C163.55603043 116.99882904 163.8425296 117.79453308 164.13771057 118.61434937 C165.10244065 121.30172375 166.05098019 123.99454139 167 126.6875 C167.69307204 128.62718417 168.38727903 130.56646311 169.08251953 132.50537109 C170.617849 136.79225834 172.14665554 141.08140244 173.67138672 145.37207031 C176.33688235 152.86661407 179.02804391 160.35183108 181.72265625 167.8359375 C182.6877919 170.51715403 183.65285578 173.1983964 184.61791992 175.87963867 C184.85957791 176.55098563 185.1012359 177.22233259 185.35021687 177.9140234 C188.06827694 185.46596051 190.78034895 193.02004581 193.4921875 200.57421875 C193.98058003 201.93457745 194.46897823 203.29493411 194.9573822 204.6552887 C195.67623429 206.65751813 196.39508507 208.65974804 197.11392307 210.66198254 C200.60914654 220.39744597 204.10527245 230.13258275 207.60577393 239.8661499 C208.2972587 241.78953336 208.98833866 243.71306245 209.67889404 245.63677979 C210.32052562 247.42417912 210.96429345 249.21081297 211.6101532 250.99668884 C212.27989419 252.86878641 212.9354645 254.74600037 213.57844543 256.62745667 C215.45625824 262.03053474 217.52178944 267.23269483 219.99177456 272.38694382 C235.17804125 304.38131191 234.1556442 336.608537 233.49407446 371.18179649 C233.36154892 378.33631097 233.322886 385.48996902 233.29320812 392.64552784 C233.26440015 399.53712057 233.20038937 406.42831217 233.12774873 413.31956649 C233.1055484 415.51166655 233.08716636 417.70377817 233.06889915 419.89591408 C233.03190713 423.95058918 232.95835725 428.00378215 232.87963867 432.05786133 C232.8704541 433.26011856 232.86126953 434.46237579 232.85180664 435.70106506 C232.82463058 436.80005127 232.79745453 437.89903748 232.76945496 439.03132629 C232.7457623 440.46134586 232.7457623 440.46134586 232.721591 441.92025471 C232.00255961 445.30914982 230.93211241 446.33093372 228.1875 448.4375 C225.5153639 448.82970434 223.25526285 448.97559916 220.58496094 448.94086456 C219.81164555 448.94667833 219.03833015 448.95249209 218.24158096 448.95848203 C215.63469981 448.97314984 213.02875023 448.95916565 210.421875 448.94543457 C208.54035966 448.95004081 206.65884792 448.95639186 204.77734375 448.96434355 C199.59488864 448.981098 194.41272678 448.97276277 189.23027039 448.96039867 C183.64600602 448.95137547 178.06179328 448.96530432 172.47753906 448.97631836 C161.53317952 448.9941374 150.58892948 448.99024853 139.64456558 448.9786678 C130.75261789 448.96964705 121.86070096 448.96840358 112.96875 448.97276306 C111.70488213 448.97337599 110.44101425 448.97398893 109.13884735 448.97462043 C106.5716044 448.97589929 104.00436146 448.97719614 101.43711853 448.9785108 C78.03160538 448.98960086 54.62616259 448.97808539 31.22066307 448.95714041 C9.84499333 448.93815735 -11.5305811 448.93985584 -32.90625 448.95898438 C-56.9107821 448.98039351 -80.91525461 448.98882779 -104.9197998 448.97653532 C-107.47778319 448.97526108 -110.03576659 448.97400359 -112.59375 448.97276306 C-114.48178722 448.97183741 -114.48178722 448.97183741 -116.40796661 448.97089306 C-125.29282406 448.9674343 -134.17764778 448.9732798 -143.0625 448.98268127 C-153.88503384 448.99388098 -164.70745159 448.99090398 -175.52997208 448.9695583 C-181.05548749 448.95902056 -186.58080911 448.95497235 -192.10632324 448.96815491 C-197.15939728 448.98002832 -202.2120969 448.97360006 -207.26513672 448.9522447 C-209.09818143 448.94775712 -210.93125745 448.95009284 -212.76428223 448.95974785 C-215.24663163 448.97182531 -217.72768068 448.95952628 -220.20996094 448.94086456 C-221.28985605 448.95491156 -221.28985605 448.95491156 -222.39156723 448.96924233 C-225.7816055 448.91793042 -227.53096065 448.65374097 -230.25392884 446.56232005 C-232.20615989 443.90081843 -232.34402488 442.35613937 -232.40791321 439.07170105 C-232.43797958 437.9813858 -232.46804596 436.89107056 -232.49902344 435.76771545 C-232.51751343 433.97846901 -232.51751343 433.97846901 -232.53637695 432.15307617 C-232.56426804 430.89174866 -232.59215912 429.63042114 -232.62089539 428.33087158 C-232.71034962 424.13097841 -232.75681582 419.93104402 -232.80078125 415.73046875 C-232.81831469 414.26669904 -232.83604354 412.80293166 -232.85396385 411.33916664 C-232.92638474 405.21167387 -232.98842687 399.08424103 -233.02183247 392.95640087 C-233.06485541 385.06773093 -233.13922008 377.18309622 -233.31469727 369.29614258 C-234.13223862 331.75479371 -232.76903021 299.8091633 -216.84329224 264.96774292 C-214.12375958 258.99759487 -211.97228756 252.87328535 -209.84765625 246.66796875 C-209.17983661 244.80170472 -208.50881433 242.93658289 -207.83422852 241.07275391 C-207.35604172 239.74307587 -207.35604172 239.74307587 -206.86819458 238.38653564 C-205.7940522 235.39992805 -204.71921721 232.41357027 -203.64428711 229.42724609 C-199.87383815 218.95148785 -196.10702058 208.47443274 -192.34375 197.99609375 C-189.00772315 188.70773857 -185.66270986 179.42265968 -182.31053162 170.14012146 C-179.83636726 163.28600183 -177.3756676 156.42716613 -174.920578 149.56619263 C-173.18775433 144.73129898 -171.44530093 139.89991284 -169.70065308 135.0692749 C-168.86440301 132.7476713 -168.03208916 130.42464577 -167.20388794 128.10015869 C-166.05518514 124.87801709 -164.89257074 121.66122477 -163.7265625 118.4453125 C-163.38879288 117.48737793 -163.05102325 116.52944336 -162.70301819 115.54248047 C-162.38030441 114.66108398 -162.05759064 113.7796875 -161.72509766 112.87158203 C-161.45073883 112.10750031 -161.17638 111.34341858 -160.89370728 110.55618286 C-159.49258519 107.81061001 -158.30611833 106.28626536 -155.8125 104.4375 C-153.10421794 104.06316915 -150.80914359 103.92973791 -148.10644531 103.98339844 C-146.94977104 103.98252228 -146.94977104 103.98252228 -145.76972961 103.98162842 C-143.22623347 103.98441053 -140.68391586 104.01550709 -138.140625 104.046875 C-136.37514893 104.05433697 -134.60966457 104.06003011 -132.84417725 104.06402588 C-128.20136579 104.07928572 -123.55905626 104.1185704 -118.91644287 104.1628418 C-114.17743723 104.20378703 -109.43835035 104.22203529 -104.69921875 104.2421875 C-95.40342552 104.28506443 -86.10800453 104.35331992 -76.8125 104.4375 C-77.02403214 103.71576599 -77.23556427 102.99403198 -77.45350647 102.25042725 C-78.89164179 97.19681355 -80.19101902 92.49211966 -80.24609375 87.203125 C-80.25769531 86.14206543 -80.26929688 85.08100586 -80.28125 83.98779297 C-80.2709375 82.89869629 -80.260625 81.80959961 -80.25 80.6875 C-80.24097656 79.54297363 -80.23195312 78.39844727 -80.22265625 77.21923828 C-79.84881157 58.89825304 -73.29680272 41.09298481 -60.8125 27.4375 C-60.01199219 26.54546875 -59.21148437 25.6534375 -58.38671875 24.734375 C-42.99899265 8.43362897 -22.35087665 -0.21327808 0 0 Z M-45 35.0625 C-58.11099936 48.860266 -64.14223604 65.66194189 -63.8125 84.4375 C-62.64728978 101.28194244 -54.73894089 116.54825421 -42.59375 128.08984375 C-36.699333 133.06532776 -30.33386274 137.63699766 -22.77734375 139.5625 C-15.8434528 141.39098547 -11.40499606 142.83672295 -7.57421875 149.2578125 C-4.99392211 154.1804407 -2.7928589 159.24633861 -0.8125 164.4375 C-0.1525 164.4375 0.5075 164.4375 1.1875 164.4375 C1.38569336 163.87353516 1.58388672 163.30957031 1.78808594 162.72851562 C8.19678953 145.43563809 8.19678953 145.43563809 15.91796875 141.609375 C20.16200183 139.9033769 24.52942819 138.58576665 28.89990234 137.24414062 C34.07488726 135.41936473 38.1221877 132.02204493 42.1875 128.4375 C42.89777344 127.83550781 43.60804688 127.23351562 44.33984375 126.61328125 C54.57012023 117.24698205 62.32523537 103.03585126 63.36450195 89.05664062 C63.65176141 77.51132808 63.85534883 67.19650894 59.1875 56.4375 C58.64416016 55.12458984 58.64416016 55.12458984 58.08984375 53.78515625 C51.05435408 38.30707897 37.70591767 26.59901226 22.125 20.1875 C-1.61219873 12.21930071 -26.77761011 17.92345341 -45 35.0625 Z M-143.8125 120.4375 C-143.8125 157.3975 -143.8125 194.3575 -143.8125 232.4375 C-48.7725 232.4375 46.2675 232.4375 144.1875 232.4375 C144.1875 195.4775 144.1875 158.5175 144.1875 120.4375 C132.163125 120.19 120.13875 119.9425 107.75 119.6875 C103.96861572 119.57825195 100.18723145 119.46900391 96.29125977 119.35644531 C92.8692592 119.31628557 92.8692592 119.31628557 89.4471283 119.29217529 C87.93542459 119.2738752 86.42388472 119.2319248 84.91331482 119.17059326 C75.36703556 118.67088794 75.36703556 118.67088794 67.22509766 123.06785583 C64.85718883 125.98520886 63.01935795 129.15999641 61.1875 132.4375 C52.23931662 144.61697979 38.99158261 151.28523451 25.2253418 156.57592773 C21.37608533 158.93473032 19.99349484 161.72668719 18.171875 165.6953125 C17.82997131 166.39896942 17.48806763 167.10262634 17.13580322 167.8276062 C16.05223634 170.06466252 14.99388816 172.31249914 13.9375 174.5625 C12.86267022 176.81733727 11.78272246 179.06951849 10.6963501 181.31881714 C10.02309681 182.716284 9.35728266 184.11736382 8.699646 185.52224731 C6.40882404 190.32683798 6.40882404 190.32683798 4.1875 191.4375 C-3.20702115 191.90699341 -3.20702115 191.90699341 -5.23217773 190.33666992 C-7.40566332 187.72465936 -8.68019972 184.7932455 -10.0703125 181.72265625 C-10.70176191 180.38282029 -11.33461979 179.04364738 -11.96875 177.70507812 C-12.95641182 175.6065417 -13.93496644 173.50560956 -14.88964844 171.3918457 C-18.77326548 161.94838118 -18.77326548 161.94838118 -26.34765625 155.72265625 C-27.82820338 155.26826069 -29.31654388 154.8382623 -30.8125 154.4375 C-32.07374899 153.87390536 -33.3212639 153.27825892 -34.55078125 152.6484375 C-35.13706299 152.35235596 -35.72334473 152.05627441 -36.32739258 151.7512207 C-50.85778385 144.16336868 -60.81357261 133.93589109 -69.8125 120.4375 C-73.00761663 119.99640291 -73.00761663 119.99640291 -76.83251953 120.09692383 C-77.56626234 120.09656222 -78.30000515 120.09620062 -79.05598259 120.09582806 C-81.43603479 120.09807101 -83.81538606 120.12093296 -86.1953125 120.14453125 C-87.66267558 120.14894094 -89.13004337 120.15200219 -90.59741211 120.15368652 C-96.04417994 120.16942863 -101.49084682 120.21131217 -106.9375 120.25 C-119.10625 120.311875 -131.275 120.37375 -143.8125 120.4375 Z M-160.8125 161.4375 C-161.02309052 162.02804169 -161.23368103 162.61858337 -161.45065308 163.22702026 C-171.01955224 190.05829165 -180.59748846 216.88617029 -190.25 243.6875 C-190.61814819 244.70985748 -190.98629639 245.73221497 -191.36560059 246.78555298 C-195.17643391 257.36670329 -198.99445096 267.94521915 -202.82421875 278.51953125 C-203.44410343 280.23209214 -204.06397682 281.94465712 -204.68383789 283.65722656 C-205.82301793 286.80441631 -206.96438703 289.95079947 -208.10717773 293.09667969 C-208.60537313 294.47198089 -209.10350561 295.84730488 -209.6015625 297.22265625 C-210.03162598 298.40738525 -210.46168945 299.59211426 -210.90478516 300.81274414 C-211.86697263 303.13213336 -211.86697263 303.13213336 -211.8125 304.4375 C-202.5725 304.4375 -193.3325 304.4375 -183.8125 304.4375 C-181.76622651 299.05256976 -179.75551244 293.68696095 -177.8125 288.26953125 C-176.08089373 283.49330095 -174.1262441 278.91245373 -171.90487671 274.34390259 C-154.76607496 238.65292056 -158.33814989 200.00774709 -159.8125 161.4375 C-160.1425 161.4375 -160.4725 161.4375 -160.8125 161.4375 Z M160.1875 161.4375 C157.68990041 208.69366995 158.58627503 248.11050259 178.94720459 291.62712097 C180.80996393 295.84793784 182.47405751 300.15389378 184.1875 304.4375 C193.4275 304.4375 202.6675 304.4375 212.1875 304.4375 C205.50624915 283.82513035 198.10908065 263.49347332 190.70611572 243.13168335 C185.94351867 230.02634648 181.22990207 216.90339077 176.51300049 203.78155518 C171.43468291 189.65581468 166.32758254 175.54088964 161.1875 161.4375 C160.8575 161.4375 160.5275 161.4375 160.1875 161.4375 Z M-145.8125 248.4375 C-153.13014423 267.89337373 -153.13014423 267.89337373 -160.19116211 287.43774414 C-160.90507783 289.46020799 -161.62329267 291.48111528 -162.34179688 293.50195312 C-164.67774034 298.87554041 -164.67774034 298.87554041 -165.8125 304.4375 C-165.2511202 304.43896656 -164.68974041 304.44043312 -164.11134911 304.44194412 C-150.43965463 304.47902669 -136.76821086 304.53831234 -123.09671593 304.62140274 C-116.48520284 304.66091557 -109.87382371 304.69308559 -103.26220703 304.70849609 C-96.88188877 304.72363728 -90.50193869 304.75803852 -84.12178421 304.80580902 C-81.68736597 304.82064887 -79.25289518 304.8285425 -76.81843185 304.82938385 C-73.40899121 304.8317473 -70.00057317 304.85877897 -66.59130859 304.89160156 C-65.58429901 304.8865712 -64.57728943 304.88154083 -63.5397644 304.87635803 C-57.66601595 304.96387134 -54.29315562 305.5336781 -49.8125 309.4375 C-48.45703125 311.59375 -48.45703125 311.59375 -47.625 313.9375 C-47.31175781 314.80632812 -46.99851562 315.67515625 -46.67578125 316.5703125 C-45.4652491 320.59081295 -44.54408935 324.65760049 -43.71875 328.7734375 C-42.6479613 331.92118703 -41.37066599 333.34705839 -38.8125 335.4375 C-35.33870879 336.5954304 -32.60779683 336.57872491 -28.94189453 336.59863281 C-27.89989899 336.60608017 -27.89989899 336.60608017 -26.83685303 336.61367798 C-24.53966276 336.62827829 -22.24254154 336.63509784 -19.9453125 336.640625 C-18.34732054 336.64637799 -16.7493286 336.65213571 -15.15133667 336.65789795 C-11.80059488 336.66840172 -8.44987703 336.67424854 -5.09912109 336.67773438 C-0.80948284 336.68321933 3.47983804 336.7072498 7.76937675 336.73570633 C11.07053549 336.75434645 14.37161795 336.75953902 17.67282486 336.76107025 C19.25404725 336.76409397 20.83526839 336.77211304 22.41643906 336.78525543 C24.63057238 336.80234597 26.84393261 336.80042884 29.05810547 336.79394531 C30.31702606 336.79759094 31.57594666 336.80123657 32.87301636 336.80499268 C36.48104787 336.40495294 38.33674854 335.65136988 41.1875 333.4375 C44.04762363 327.97909504 45.55893549 322.07697313 47.1171875 316.13476562 C48.48597195 311.40255358 50.04019466 309.09045882 54.1875 306.4375 C56.54444539 305.2590273 57.97508828 305.30024132 60.60403442 305.27928162 C61.5323407 305.2694928 62.46064697 305.25970398 63.41708374 305.24961853 C64.43847443 305.24386307 65.45986511 305.2381076 66.51220703 305.23217773 C68.12198425 305.21732834 68.12198425 305.21732834 69.76428223 305.20217896 C73.32460293 305.17049842 76.88493699 305.14578062 80.4453125 305.12109375 C82.90868484 305.10052988 85.3720536 305.07953357 87.8354187 305.05812073 C94.32913321 305.00284147 100.82287988 304.95345804 107.31665039 304.90527344 C113.93899406 304.8551011 120.56129086 304.79939279 127.18359375 304.74414062 C140.18485555 304.63648747 153.18615733 304.53487057 166.1875 304.4375 C159.71393529 285.6994727 152.92181858 267.08638222 146.1875 248.4375 C49.8275 248.4375 -46.5325 248.4375 -145.8125 248.4375 Z M-215.8125 320.4375 C-215.8125 357.3975 -215.8125 394.3575 -215.8125 432.4375 C-73.2525 432.4375 69.3075 432.4375 216.1875 432.4375 C216.1875 395.4775 216.1875 358.5175 216.1875 320.4375 C165.6975 320.4375 115.2075 320.4375 63.1875 320.4375 C60.83843942 327.45892576 60.83843942 327.45892576 58.875 334.5 C56.87381782 341.13278423 53.78455463 346.18407674 47.60546875 349.51696777 C43.15617587 351.68521155 39.4035534 352.00700144 34.51171875 351.95507812 C33.68459381 351.9620874 32.85746887 351.96909668 32.00527954 351.97631836 C29.29483598 351.9937984 26.58545256 351.98231162 23.875 351.96875 C21.97745566 351.97144779 20.07991268 351.97533261 18.18237305 351.98034668 C14.21487198 351.98622819 10.24773233 351.9777223 6.28027344 351.95898438 C1.20958178 351.93619566 -3.86026284 351.94932599 -8.93092346 351.97327423 C-12.84645909 351.98776869 -16.76179584 351.98310952 -20.67733765 351.97276306 C-22.54633689 351.97010585 -24.41535454 351.97332993 -26.28433228 351.98268127 C-28.90227691 351.99290728 -31.5188738 351.97726244 -34.13671875 351.95507812 C-34.8995517 351.96317505 -35.66238464 351.97127197 -36.44833374 351.97961426 C-42.67102962 351.88254308 -47.88069734 350.09361444 -52.54545593 345.86750031 C-57.77767245 340.2739274 -59.03850061 332.40331918 -60.83203125 325.19140625 C-61.41482092 321.66669119 -61.41482092 321.66669119 -62.8125 320.4375 C-64.78678234 320.3408112 -66.76457831 320.31562925 -68.7412262 320.31724548 C-70.02996643 320.31587082 -71.31870667 320.31449615 -72.64649963 320.31307983 C-74.08798241 320.31661945 -75.52946495 320.32025427 -76.97094727 320.32397461 C-78.47846474 320.32425647 -79.98598236 320.32409877 -81.49349976 320.3235321 C-85.59869344 320.32324409 -89.70385815 320.32914139 -93.80904508 320.33610606 C-98.0945326 320.34233901 -102.38002072 320.34294335 -106.66551208 320.34413147 C-114.78636652 320.34724496 -122.90720756 320.35545859 -131.02805609 320.36548096 C-141.99775785 320.37872663 -152.96746325 320.38414186 -163.93717098 320.38998318 C-181.22895736 320.39939847 -198.52071547 320.41931726 -215.8125 320.4375 Z " fill="#000000" transform="translate(255.8125,31.5625)"/>
<path d="M0 0 C5.15402692 1.65977138 7.88543619 4.40303834 11.6875 8.1875 C12.28820312 8.78127441 12.88890625 9.37504883 13.5078125 9.98681641 C17.92875607 14.35975262 22.31833392 18.76286599 26.6875 23.1875 C30.22073172 21.6869769 32.43286516 19.649501 35.09375 16.90625 C35.92003906 16.06449219 36.74632812 15.22273438 37.59765625 14.35546875 C38.45230469 13.47503906 39.30695313 12.59460938 40.1875 11.6875 C41.88064885 9.94327577 43.57838708 8.20349179 45.28125 6.46875 C46.40563477 5.30956055 46.40563477 5.30956055 47.55273438 4.12695312 C50.86421826 1.11844123 52.67744785 0.16946335 57.1875 0.25 C60.6875 1.1875 60.6875 1.1875 63.1875 3.3125 C64.6875 6.1875 64.6875 6.1875 64.875 9.5 C63.21522862 14.65402692 60.47196166 17.38543619 56.6875 21.1875 C56.09372559 21.78820312 55.49995117 22.38890625 54.88818359 23.0078125 C50.51524738 27.42875607 46.11213401 31.81833392 41.6875 36.1875 C43.1880231 39.72073172 45.225499 41.93286516 47.96875 44.59375 C48.81050781 45.42003906 49.65226562 46.24632812 50.51953125 47.09765625 C51.39996094 47.95230469 52.28039062 48.80695313 53.1875 49.6875 C54.93172423 51.38064885 56.67150821 53.07838708 58.40625 54.78125 C59.56543945 55.90563477 59.56543945 55.90563477 60.74804688 57.05273438 C62.58935124 59.07946717 63.74133799 60.63106769 64.6875 63.1875 C64.51082188 66.5443842 64.30899255 69.15167908 62.5625 72.0625 C59.55188501 73.86886899 57.18307632 74.12825294 53.6875 74.1875 C47.40641874 70.85448977 42.74445706 65.46601646 37.8125 60.4375 C36.93335938 59.54933594 36.05421875 58.66117188 35.1484375 57.74609375 C32.99017481 55.56437168 30.83673832 53.37810654 28.6875 51.1875 C25.15426828 52.6880231 22.94213484 54.725499 20.28125 57.46875 C19.45496094 58.31050781 18.62867188 59.15226562 17.77734375 60.01953125 C16.92269531 60.89996094 16.06804687 61.78039062 15.1875 62.6875 C13.49435115 64.43172423 11.79661292 66.17150821 10.09375 67.90625 C9.34416016 68.67904297 8.59457031 69.45183594 7.82226562 70.24804688 C4.51078174 73.25655877 2.69755215 74.20553665 -1.8125 74.125 C-5.3125 73.1875 -5.3125 73.1875 -7.75 71 C-9.6927852 67.50298664 -10.16195396 66.12587743 -9.3125 62.1875 C-4.85921039 56.15818685 0.80637895 50.94286206 6.125 45.6875 C6.85654297 44.96046875 7.58808594 44.2334375 8.34179688 43.484375 C10.12139824 41.71640501 11.90330918 39.95083622 13.6875 38.1875 C12.1869769 34.65426828 10.149501 32.44213484 7.40625 29.78125 C6.56449219 28.95496094 5.72273437 28.12867187 4.85546875 27.27734375 C3.53482422 25.99537109 3.53482422 25.99537109 2.1875 24.6875 C0.44327577 22.99435115 -1.29650821 21.29661292 -3.03125 19.59375 C-3.80404297 18.84416016 -4.57683594 18.09457031 -5.37304688 17.32226562 C-8.38155877 14.01078174 -9.33053665 12.19755215 -9.25 7.6875 C-8.3125 4.1875 -8.3125 4.1875 -6.1875 1.6875 C-3.3125 0.1875 -3.3125 0.1875 0 0 Z " fill="#000000" transform="translate(228.3125,74.8125)"/>
</svg>
