<svg width="22" height="22" viewBox="0 0 22 22" fill="none" xmlns="http://www.w3.org/2000/svg">
<path opacity="0.2" d="M4.125 8.9375V18.5625H17.875V8.9375H4.125Z" fill="white"/>
<path d="M3.4375 9.62505V17.8751C3.4375 18.2397 3.58237 18.5895 3.84023 18.8473C4.09809 19.1052 4.44783 19.2501 4.8125 19.2501H17.1875C17.5522 19.2501 17.9019 19.1052 18.1598 18.8473C18.4176 18.5895 18.5625 18.2397 18.5625 17.8751V9.62505C18.5625 9.26038 18.4176 8.91064 18.1598 8.65278C17.9019 8.39492 17.5522 8.25005 17.1875 8.25005H15.125C14.9427 8.25005 14.7678 8.32249 14.6389 8.45142C14.5099 8.58035 14.4375 8.75522 14.4375 8.93755C14.4375 9.11989 14.5099 9.29476 14.6389 9.42369C14.7678 9.55262 14.9427 9.62505 15.125 9.62505H17.1875V17.8751H4.8125V9.62505H6.875C7.05734 9.62505 7.23221 9.55262 7.36114 9.42369C7.49007 9.29476 7.5625 9.11989 7.5625 8.93755C7.5625 8.75522 7.49007 8.58035 7.36114 8.45142C7.23221 8.32249 7.05734 8.25005 6.875 8.25005H4.8125C4.44783 8.25005 4.09809 8.39492 3.84023 8.65278C3.58237 8.91064 3.4375 9.26038 3.4375 9.62505ZM13.9511 5.98646L11.6875 3.72201V11.6876C11.6875 11.8699 11.6151 12.0448 11.4861 12.1737C11.3572 12.3026 11.1823 12.3751 11 12.3751C10.8177 12.3751 10.6428 12.3026 10.5139 12.1737C10.3849 12.0448 10.3125 11.8699 10.3125 11.6876V3.72201L8.04891 5.98646C7.9199 6.11546 7.74494 6.18793 7.5625 6.18793C7.38006 6.18793 7.2051 6.11546 7.07609 5.98646C6.94709 5.85746 6.87462 5.68249 6.87462 5.50005C6.87462 5.31761 6.94709 5.14265 7.07609 5.01365L10.5136 1.57615C10.5774 1.51223 10.6533 1.46152 10.7367 1.42692C10.8202 1.39232 10.9097 1.37451 11 1.37451C11.0903 1.37451 11.1798 1.39232 11.2633 1.42692C11.3467 1.46152 11.4226 1.51223 11.4864 1.57615L14.9239 5.01365C15.0529 5.14265 15.1254 5.31761 15.1254 5.50005C15.1254 5.68249 15.0529 5.85746 14.9239 5.98646C14.7949 6.11546 14.6199 6.18793 14.4375 6.18793C14.2551 6.18793 14.0801 6.11546 13.9511 5.98646Z" fill="white"/>
</svg>
