<svg width="28" height="28" viewBox="0 0 28 28" fill="none" xmlns="http://www.w3.org/2000/svg">
<path d="M9.16667 10.3127C8.84202 10.3127 8.57007 10.2027 8.35084 9.98266C8.1316 9.76266 8.0216 9.49072 8.02084 9.16683C8.02007 8.84294 8.13007 8.571 8.35084 8.351C8.5716 8.131 8.84354 8.021 9.16667 8.021H22.9167C23.2413 8.021 23.5136 8.131 23.7336 8.351C23.9536 8.571 24.0633 8.84294 24.0625 9.16683C24.0617 9.49072 23.9517 9.76304 23.7325 9.98381C23.5133 10.2046 23.2413 10.3142 22.9167 10.3127H9.16667ZM9.16667 14.896C8.84202 14.896 8.57007 14.786 8.35084 14.566C8.1316 14.346 8.0216 14.0741 8.02084 13.7502C8.02007 13.4263 8.13007 13.1543 8.35084 12.9343C8.5716 12.7143 8.84354 12.6043 9.16667 12.6043H22.9167C23.2413 12.6043 23.5136 12.7143 23.7336 12.9343C23.9536 13.1543 24.0633 13.4263 24.0625 13.7502C24.0617 14.0741 23.9517 14.3464 23.7325 14.5671C23.5133 14.7879 23.2413 14.8975 22.9167 14.896H9.16667ZM9.16667 19.4793C8.84202 19.4793 8.57007 19.3693 8.35084 19.1493C8.1316 18.9293 8.0216 18.6574 8.02084 18.3335C8.02007 18.0096 8.13007 17.7377 8.35084 17.5177C8.5716 17.2977 8.84354 17.1877 9.16667 17.1877H22.9167C23.2413 17.1877 23.5136 17.2977 23.7336 17.5177C23.9536 17.7377 24.0633 18.0096 24.0625 18.3335C24.0617 18.6574 23.9517 18.9297 23.7325 19.1505C23.5133 19.3712 23.2413 19.4809 22.9167 19.4793H9.16667ZM4.58334 10.3127C4.25868 10.3127 3.98674 10.2027 3.7675 9.98266C3.54827 9.76266 3.43827 9.49072 3.4375 9.16683C3.43674 8.84294 3.54674 8.571 3.7675 8.351C3.98827 8.131 4.26021 8.021 4.58334 8.021C4.90646 8.021 5.17879 8.131 5.40032 8.351C5.62184 8.571 5.73146 8.84294 5.72917 9.16683C5.72688 9.49072 5.61688 9.76304 5.39917 9.98381C5.18146 10.2046 4.90952 10.3142 4.58334 10.3127ZM4.58334 14.896C4.25868 14.896 3.98674 14.786 3.7675 14.566C3.54827 14.346 3.43827 14.0741 3.4375 13.7502C3.43674 13.4263 3.54674 13.1543 3.7675 12.9343C3.98827 12.7143 4.26021 12.6043 4.58334 12.6043C4.90646 12.6043 5.17879 12.7143 5.40032 12.9343C5.62184 13.1543 5.73146 13.4263 5.72917 13.7502C5.72688 14.0741 5.61688 14.3464 5.39917 14.5671C5.18146 14.7879 4.90952 14.8975 4.58334 14.896ZM4.58334 19.4793C4.25868 19.4793 3.98674 19.3693 3.7675 19.1493C3.54827 18.9293 3.43827 18.6574 3.4375 18.3335C3.43674 18.0096 3.54674 17.7377 3.7675 17.5177C3.98827 17.2977 4.26021 17.1877 4.58334 17.1877C4.90646 17.1877 5.17879 17.2977 5.40032 17.5177C5.62184 17.7377 5.73146 18.0096 5.72917 18.3335C5.72688 18.6574 5.61688 18.9297 5.39917 19.1505C5.18146 19.3712 4.90952 19.4809 4.58334 19.4793Z" fill="#1E3178"/>
</svg>
