<svg width="30" height="30" viewBox="0 0 30 30" fill="none" xmlns="http://www.w3.org/2000/svg">
<g clip-path="url(#clip0_230_91)">
<path fill-rule="evenodd" clip-rule="evenodd" d="M4.77857 2.91C4.93524 2.76222 5.14179 2.67884 5.35714 2.67643H20.3571C20.5779 2.67643 20.7857 2.76214 20.9357 2.91C21.0062 2.97908 21.0624 3.06139 21.101 3.15222C21.1396 3.24305 21.1599 3.3406 21.1607 3.43929V5.50071C21.1607 5.85592 21.3018 6.19657 21.553 6.44773C21.8041 6.6989 22.1448 6.84 22.5 6.84C22.8552 6.84 23.1959 6.6989 23.447 6.44773C23.6982 6.19657 23.8393 5.85592 23.8393 5.50071V3.43929C23.8393 2.51786 23.4664 1.63929 22.8107 0.996429C22.1541 0.357057 21.2736 -0.000499803 20.3571 5.24373e-07H5.35714C4.44214 5.24373e-07 3.55714 0.357858 2.90357 0.998572C2.25 1.63929 1.875 2.52 1.875 3.44143V26.5629C1.875 27.4843 2.24786 28.3607 2.90357 29.0057C3.55929 29.6464 4.44214 30.0021 5.35714 30.0021H20.3571C21.2721 30.0021 22.1571 29.6464 22.8107 29.0036C23.4643 28.3607 23.8393 27.4821 23.8393 26.5607V24.5014C23.8393 24.1462 23.6982 23.8056 23.447 23.5544C23.1959 23.3032 22.8552 23.1621 22.5 23.1621C22.1448 23.1621 21.8041 23.3032 21.553 23.5544C21.3018 23.8056 21.1607 24.1462 21.1607 24.5014V26.5629C21.1607 26.7557 21.0814 26.9486 20.9336 27.0921C20.7771 27.2386 20.5715 27.3212 20.3571 27.3236H5.35714C5.13643 27.3236 4.92857 27.2379 4.77857 27.0921C4.70809 27.0231 4.65193 26.9407 4.61332 26.8499C4.57471 26.7591 4.55441 26.6615 4.55357 26.5629V3.43929C4.55357 3.24643 4.63071 3.05357 4.77857 2.91ZM21.9879 9.47786C21.7444 9.5806 21.5365 9.75252 21.3899 9.97231C21.2432 10.1921 21.1643 10.4501 21.1629 10.7143V13.6607H11.7857C11.4305 13.6607 11.0899 13.8018 10.8387 14.053C10.5875 14.3041 10.4464 14.6448 10.4464 15C10.4464 15.3552 10.5875 15.6959 10.8387 15.947C11.0899 16.1982 11.4305 16.3393 11.7857 16.3393H21.1607V19.2857C21.1607 19.5506 21.2392 19.8096 21.3863 20.0299C21.5335 20.2502 21.7427 20.4219 21.9874 20.5233C22.2322 20.6247 22.5015 20.6512 22.7614 20.5995C23.0212 20.5478 23.2598 20.4202 23.4471 20.2329L27.7329 15.9471C27.8573 15.8228 27.9559 15.6751 28.0233 15.5126C28.0906 15.3501 28.1252 15.1759 28.1252 15C28.1252 14.8241 28.0906 14.6499 28.0233 14.4874C27.9559 14.3249 27.8573 14.1772 27.7329 14.0529L23.4471 9.76714C23.2597 9.58007 23.0211 9.45274 22.7614 9.40125C22.5016 9.34976 22.2324 9.37642 21.9879 9.47786Z" fill="#E01B22"/>
</g>
<defs>
<clipPath id="clip0_230_91">
<rect width="30" height="30" fill="white"/>
</clipPath>
</defs>
</svg>
