<svg width="29" height="27" viewBox="0 0 29 27" fill="none" xmlns="http://www.w3.org/2000/svg">
<path fill-rule="evenodd" clip-rule="evenodd" d="M3.75 23.4375C3.50136 23.4375 3.2629 23.3387 3.08709 23.1629C2.91127 22.9871 2.8125 22.7486 2.8125 22.5V3.75C2.8125 3.50136 2.91127 3.2629 3.08709 3.08709C3.2629 2.91127 3.50136 2.8125 3.75 2.8125H21.0937C21.4667 2.8125 21.8244 2.66434 22.0881 2.40062C22.3518 2.1369 22.5 1.77921 22.5 1.40625C22.5 1.03329 22.3518 0.675604 22.0881 0.411881C21.8244 0.148158 21.4667 5.55755e-09 21.0937 0H3.75C2.75544 0 1.80161 0.395088 1.09835 1.09835C0.395088 1.80161 0 2.75544 0 3.75V22.5C0 23.4946 0.395088 24.4484 1.09835 25.1516C1.80161 25.8549 2.75544 26.25 3.75 26.25H22.5C23.4946 26.25 24.4484 25.8549 25.1516 25.1516C25.8549 24.4484 26.25 23.4946 26.25 22.5V16.4062C26.25 16.0333 26.1018 15.6756 25.8381 15.4119C25.5744 15.1482 25.2167 15 24.8437 15C24.4708 15 24.1131 15.1482 23.8494 15.4119C23.5857 15.6756 23.4375 16.0333 23.4375 16.4062V22.5C23.4375 22.7486 23.3387 22.9871 23.1629 23.1629C22.9871 23.3387 22.7486 23.4375 22.5 23.4375H3.75ZM27.7125 6.9C27.9609 6.63342 28.0961 6.28084 28.0897 5.91652C28.0833 5.55221 27.9357 5.20461 27.678 4.94696C27.4204 4.68931 27.0728 4.54172 26.7085 4.5353C26.3442 4.52887 25.9916 4.6641 25.725 4.9125L15.3037 15.3319L11.7919 11.7019C11.6637 11.568 11.5104 11.4608 11.3407 11.3863C11.171 11.3119 10.9882 11.2717 10.803 11.2682C10.6177 11.2646 10.4335 11.2977 10.2611 11.3656C10.0886 11.4334 9.93127 11.5347 9.79809 11.6635C9.6649 11.7924 9.5585 11.9463 9.485 12.1164C9.4115 12.2865 9.37235 12.4695 9.3698 12.6548C9.36724 12.8401 9.40134 13.0241 9.47013 13.1962C9.53892 13.3682 9.64104 13.525 9.77062 13.6575L14.2762 18.315C14.4059 18.4495 14.561 18.5567 14.7326 18.6306C14.9041 18.7044 15.0887 18.7434 15.2754 18.7451C15.4622 18.7469 15.6475 18.7114 15.8204 18.6408C15.9933 18.5701 16.1504 18.4658 16.2825 18.3337L27.7125 6.9Z" fill="white"/>
</svg>
