<svg width="20" height="20" viewBox="0 0 20 20" fill="none" xmlns="http://www.w3.org/2000/svg">
<path d="M9.99986 4.16677V1.84177C9.99986 1.46677 9.54986 1.28344 9.29153 1.55011L6.12486 4.70844C5.95819 4.87511 5.95819 5.13344 6.12486 5.30011L9.28319 8.45844C9.54986 8.71677 9.99986 8.53344 9.99986 8.15844V5.83344C13.1082 5.83344 15.5665 8.68344 14.8832 11.9084C14.4915 13.8001 12.9582 15.3251 11.0749 15.7168C8.09986 16.3418 5.44986 14.3001 5.04986 11.5418C5.02015 11.3459 4.92163 11.167 4.77197 11.0372C4.62231 10.9074 4.4313 10.8352 4.23319 10.8334C3.73319 10.8334 3.33319 11.2751 3.39986 11.7751C3.91653 15.4334 7.39986 18.1418 11.3415 17.3751C13.9415 16.8668 16.0332 14.7751 16.5415 12.1751C17.3665 7.90011 14.1165 4.16677 9.99986 4.16677Z" fill="#323232"/>
</svg>
