<svg width="30" height="30" viewBox="0 0 30 30" fill="none" xmlns="http://www.w3.org/2000/svg">
<path fill-rule="evenodd" clip-rule="evenodd" d="M25 5H5C4.66848 5 4.35054 5.1317 4.11612 5.36612C3.8817 5.60054 3.75 5.91848 3.75 6.25V23.75C3.75 24.0815 3.8817 24.3995 4.11612 24.6339C4.35054 24.8683 4.66848 25 5 25H25C25.3315 25 25.6495 24.8683 25.8839 24.6339C26.1183 24.3995 26.25 24.0815 26.25 23.75V6.25C26.25 5.91848 26.1183 5.60054 25.8839 5.36612C25.6495 5.1317 25.3315 5 25 5ZM5 2.5C4.00544 2.5 3.05161 2.89509 2.34835 3.59835C1.64509 4.30161 1.25 5.25544 1.25 6.25V23.75C1.25 24.7446 1.64509 25.6984 2.34835 26.4017C3.05161 27.1049 4.00544 27.5 5 27.5H25C25.9946 27.5 26.9484 27.1049 27.6517 26.4017C28.3549 25.6984 28.75 24.7446 28.75 23.75V6.25C28.75 5.25544 28.3549 4.30161 27.6517 3.59835C26.9484 2.89509 25.9946 2.5 25 2.5H5ZM7.5 8.75H10V11.25H7.5V8.75ZM13.75 8.75C13.4185 8.75 13.1005 8.8817 12.8661 9.11612C12.6317 9.35054 12.5 9.66848 12.5 10C12.5 10.3315 12.6317 10.6495 12.8661 10.8839C13.1005 11.1183 13.4185 11.25 13.75 11.25H21.25C21.5815 11.25 21.8995 11.1183 22.1339 10.8839C22.3683 10.6495 22.5 10.3315 22.5 10C22.5 9.66848 22.3683 9.35054 22.1339 9.11612C21.8995 8.8817 21.5815 8.75 21.25 8.75H13.75ZM10 13.75H7.5V16.25H10V13.75ZM12.5 15C12.5 14.6685 12.6317 14.3505 12.8661 14.1161C13.1005 13.8817 13.4185 13.75 13.75 13.75H21.25C21.5815 13.75 21.8995 13.8817 22.1339 14.1161C22.3683 14.3505 22.5 14.6685 22.5 15C22.5 15.3315 22.3683 15.6495 22.1339 15.8839C21.8995 16.1183 21.5815 16.25 21.25 16.25H13.75C13.4185 16.25 13.1005 16.1183 12.8661 15.8839C12.6317 15.6495 12.5 15.3315 12.5 15ZM10 18.75H7.5V21.25H10V18.75ZM12.5 20C12.5 19.6685 12.6317 19.3505 12.8661 19.1161C13.1005 18.8817 13.4185 18.75 13.75 18.75H21.25C21.5815 18.75 21.8995 18.8817 22.1339 19.1161C22.3683 19.3505 22.5 19.6685 22.5 20C22.5 20.3315 22.3683 20.6495 22.1339 20.8839C21.8995 21.1183 21.5815 21.25 21.25 21.25H13.75C13.4185 21.25 13.1005 21.1183 12.8661 20.8839C12.6317 20.6495 12.5 20.3315 12.5 20Z" fill="white"/>
</svg>
