<svg width="20" height="20" viewBox="0 0 20 20" fill="none" xmlns="http://www.w3.org/2000/svg">
<path d="M17.9537 9.204C18.207 9.559 18.3337 9.73734 18.3337 9.99984C18.3337 10.2632 18.207 10.4407 17.9537 10.7957C16.8153 12.3923 13.9078 15.8332 10.0003 15.8332C6.09199 15.8332 3.18533 12.3915 2.04699 10.7957C1.79366 10.4407 1.66699 10.2623 1.66699 9.99984C1.66699 9.7365 1.79366 9.559 2.04699 9.204C3.18533 7.60734 6.09283 4.1665 10.0003 4.1665C13.9087 4.1665 16.8153 7.60817 17.9537 9.204Z" stroke="#323232" stroke-width="1.75"/>
<path d="M12.5 10C12.5 9.33696 12.2366 8.70107 11.7678 8.23223C11.2989 7.76339 10.663 7.5 10 7.5C9.33696 7.5 8.70107 7.76339 8.23223 8.23223C7.76339 8.70107 7.5 9.33696 7.5 10C7.5 10.663 7.76339 11.2989 8.23223 11.7678C8.70107 12.2366 9.33696 12.5 10 12.5C10.663 12.5 11.2989 12.2366 11.7678 11.7678C12.2366 11.2989 12.5 10.663 12.5 10Z" stroke="#323232" stroke-width="1.75"/>
</svg>
